<?xml version="1.0" encoding="utf-8"?>
<!-- Generator: Adobe Illustrator 19.1.0, SVG Export Plug-In . SVG Version: 6.00 Build 0)  -->
<svg version="1.1" id="Layer_1" xmlns="http://www.w3.org/2000/svg" xmlns:xlink="http://www.w3.org/1999/xlink" x="0px" y="0px"
	 viewBox="13 41.9 170.1 170.1" style="enable-background:new 13 41.9 170.1 170.1;" xml:space="preserve">
<style type="text/css">
	.st0{fill:#999999;}
	.st1{fill:#606060;}
	.st2{fill:none;stroke:#DEDEDD;stroke-width:6;stroke-miterlimit:10;}
</style>
<circle class="st0" cx="98.1" cy="127" r="85.1"/>
<g>
	<g>
		<g>
			<path class="st1" d="M167.9,124.5h-53.3v-36h41.3C162.9,98.8,167.3,111.1,167.9,124.5z"/>
			<path class="st1" d="M168,129c-0.2,13.2-4.2,25.5-10.9,36c-1,1.5-2,3.1-3.2,4.5c-1.7,2.3-3.6,4.5-5.6,6.5
				c-1.4,1.5-2.9,2.9-4.5,4.2c-8.3,7.1-18.2,12.2-29.2,14.8c-1.5,0.3-3,0.6-4.5,0.9c-3.6,0.6-7.4,0.9-11.2,0.9
				c-8.5,0-16.6-1.5-24.1-4.3v-23h73.5V129H168z"/>
			<path class="st1" d="M143.8,129v36H40.6c-6.7-10.4-10.6-22.7-10.9-36H143.8z"/>
			<path class="st1" d="M152.4,84H74.7V62.8c7.5-2.8,15.6-4.3,24.1-4.3c3.8,0,7.6,0.3,11.2,0.9c1.5,0.2,3,0.5,4.5,0.9
				c11,2.5,20.9,7.7,29.2,14.8c1.6,1.3,3.1,2.8,4.5,4.2C149.7,80.8,151.1,82.4,152.4,84z"/>
			<g>
				<path class="st1" d="M70.2,64.7v59.8H29.7c0.6-13.3,5-25.6,12.1-36c1.1-1.6,2.2-3.1,3.4-4.5C51.9,75.8,60.5,69.1,70.2,64.7z"/>
			</g>
		</g>
	</g>
</g>
<path class="st2" d="M258.1,153.7"/>
</svg>
