<?xml version="1.0" encoding="utf-8"?>
<!-- Generator: Adobe Illustrator 13.0.2, SVG Export Plug-In . SVG Version: 6.00 Build 14948)  -->
<!DOCTYPE svg PUBLIC "-//W3C//DTD SVG 1.1//EN" "http://www.w3.org/Graphics/SVG/1.1/DTD/svg11.dtd">
<svg version="1.1" id="Layer_1" xmlns="http://www.w3.org/2000/svg" xmlns:xlink="http://www.w3.org/1999/xlink" x="0px" y="0px"
	 width="720px" height="490px" viewBox="0 0 720 489.255" enable-background="new 0 0 720 489.255" xml:space="preserve">
<g>
	<g>
		<g>
			<g>
				<path fill="#B5B8CC" d="M0,244.383C0,110.682,161.205,0,360,0c198.794,0,360,110.682,360,244.383
					c0,133.699-161.205,244.872-360,244.872C161.205,489.255,0,378.082,0,244.383"/>
				<path fill="#002254" d="M13.735,244.383C13.735,115.579,168.433,11.754,360,11.754c191.565,0,346.263,103.824,346.263,232.628
					c0,128.804-154.698,232.631-346.263,232.631C168.433,477.014,13.735,373.187,13.735,244.383"/>
				<path fill="#002254" d="M13.735,244.383C13.735,115.579,168.433,11.754,360,11.754c191.565,0,346.263,103.824,346.263,232.628
					c0,128.804-154.698,232.631-346.263,232.631C168.433,477.014,13.735,373.187,13.735,244.383"/>
				<path fill="#FFFFFF" d="M283.374,405.507c0.723-0.489,0.723-0.979,0-0.979s-1.446,0-2.892,0c-0.723,0-2.169,0-2.892,0
					c0,0,0,0.49,0,0.979h0.723l0.723,0.489c0,0.494-0.723,1.963-1.446,2.452c-1.446,3.916-2.892,7.837-4.338,11.263
					c0-0.489,0-1.469-0.723-2.937l-1.444-2.941c-0.723-0.489-0.723-0.979-0.723-0.979s0.723-0.979,0.723-1.469
					c0.721-0.979,1.444-2.447,2.167-3.426c0.723-1.963,1.446-1.963,2.169-2.452h0.723c0.723,0,0.723-0.979,0-0.979
					c-0.723,0-1.446,0-2.892,0c-1.446,0-2.167,0-2.89,0c-0.723,0-0.723,0.49,0,0.979h0.723c0.721,0.489,0.721,0.489,0.721,0.489
					c0,0.494-0.721,0.983-0.721,2.452l-0.723,0.489c0,0.49-0.723,1.469-0.723,1.958c0-0.489-0.723-1.468-0.723-1.958l-1.446-1.958
					c0-0.489,0-0.489,0-0.983l0.723-0.489h0.723v-0.979c-0.723,0-2.169,0-3.615,0c-1.446,0-2.892,0-3.615,0
					c-0.723,0-0.723,0.49-0.723,0.979h0.723c1.446,0,1.446,0.489,2.169,1.963l2.892,6.363c0,0.489,0,0.489,0,0.979
					c0,0,0,0.489,0,0.983l-0.723,0.979c-0.723,1.468-1.446,2.447-1.446,2.937c-0.723-0.489-0.723-1.469-1.446-2.937l-2.892-6.857
					c-1.446-2.447-2.169-3.921-2.169-3.921s0.723-0.489,1.446-0.489c0.723,0,0.723-0.979,0-0.979c-0.723,0-2.167,0-3.613,0
					c-1.446,0-2.892,0-3.615,0s-0.723,0.49-0.723,0.979h0.723c1.446,0.489,1.446,0.489,2.169,2.452l5.059,10.773
					c1.446,2.447,2.169,4.895,2.892,6.367h0.723c0.723,0,0.723,0,0.723,0c0.723-0.979,1.446-1.962,1.446-2.941l1.446-2.937
					c0.723-0.979,0.723-1.958,1.446-2.447c0,0.489,0.723,1.468,0.723,2.447l1.446,2.937c0.723,0.979,0.723,1.963,1.444,2.941
					c0,0,0,0,0.723,0h0.723c1.446-4.409,5.061-11.756,6.507-15.183c0.723-1.958,1.446-2.938,1.446-3.427
					c0.723-0.494,0.723-0.494,1.446-0.983H283.374"/>
				<path fill-rule="evenodd" clip-rule="evenodd" fill="#FFFFFF" d="M286.987,416.285c-0.723,0-0.723-0.49-0.723-0.984l0.723-2.447
					c0.723-1.469,1.446-2.447,1.446-3.426c0,0.979,0.723,1.957,1.446,3.426l0.723,2.447c0,0.494,0,0.984-0.723,0.984H286.987
					 M289.879,417.753c1.446,0,1.446,0,1.446,0.489l0.723,2.448c0.723,1.468,0.723,1.958,0.723,2.447c0,0,0,0-0.723,0.489h-0.723
					c-0.723,0.494-0.723,0.983,0,0.983c1.446,0,2.169,0,3.615,0c2.169,0,3.613,0,5.059,0v-0.983h-1.446
					c-0.721-0.489-1.444-0.979-2.167-2.937l-3.615-11.753c-0.723-2.447-1.446-3.431-1.446-4.41c0-0.489-0.723-0.489-0.723-0.489
					s-1.446,1.469-2.892,1.958c0,0.494,0,1.963-1.446,3.921l-2.167,7.347c-0.723,1.958-1.446,3.427-2.169,4.895
					c-0.723,0.979-0.723,1.469-1.446,1.469h-1.446c0,0.494,0,0.983,0,0.983c1.446,0,2.169,0,3.615,0c1.446,0,2.167,0,3.613,0v-0.983
					h-0.723c-1.444-0.489-1.444-0.489-1.444-0.489c0-0.489,0-0.489,0-1.469l1.444-3.427c0-0.489,0-0.489,0.723-0.489H289.879z"/>
				<path fill="#FFFFFF" d="M315.18,418.732c0-2.938-2.169-4.899-4.338-5.879l-1.444-0.979c-1.446-0.979-2.892-2.447-2.892-3.427
					c0-1.958,0.723-2.941,2.892-2.941c2.167,0,3.613,1.963,4.336,3.431c0,0.49,0.723,0.49,0.723,0c0-1.958,0-3.431,0-4.41
					c-0.723,0-0.723,0-1.446,0c-1.446-0.489-2.169-0.489-3.613-0.489c-4.338,0-6.507,2.452-6.507,5.879
					c0,2.937,2.169,4.895,4.338,5.878c1.446,0.979,4.336,2.447,4.336,4.896c0,1.468-1.444,2.937-3.613,2.937
					c-2.169,0-4.338-2.937-5.061-4.895c-0.723,0-0.723,0-1.446,0.489c0,1.958,0.723,3.916,1.446,4.899c0,0,2.169,0.979,5.061,0.979
					C312.288,425.1,315.18,422.648,315.18,418.732"/>
				<path fill="#FFFFFF" d="M333.253,414.812c1.446,0,1.446,0,1.446,0.983v4.406c0,2.937,0,2.937-1.446,3.426h-0.723
					c-0.723,0-0.723,0.983,0,0.983c1.446,0,2.892,0,4.338,0c1.444,0,2.89,0,4.335,0v-0.983h-0.723
					c-1.446-0.489-1.446-0.489-1.446-3.426v-11.264c0-2.941,0-2.941,1.446-3.431h0.723v-0.979c-1.446,0-2.892,0-4.335,0
					c-1.446,0-2.892,0-4.338,0c-0.723,0-0.723,0.979,0,0.979h0.723c1.446,0.489,1.446,0.489,1.446,3.431v3.427
					c0,0.979,0,0.979-1.446,0.979h-6.507c-0.723,0-0.723,0-0.723-0.979v-3.427c0-2.941,0-2.941,1.446-3.431h0.723v-0.979
					c-1.446,0-2.892,0-4.336,0c-1.446,0-3.615,0-5.061,0v0.979h0.723c1.446,0.489,2.169,0.489,2.169,3.431v11.264
					c0,2.937-0.723,2.937-2.169,3.426h-0.723v0.983c2.169,0,3.615,0,5.061,0c1.444,0,2.89,0,4.336,0v-0.983h-0.723
					c-1.446-0.489-1.446-0.489-1.446-3.426v-4.406c0-0.983,0-0.983,0.723-0.983H333.253"/>
				<path fill="#FFFFFF" d="M353.493,408.938c0-2.941,0.723-2.941,1.446-3.431h1.446v-0.979c-2.169,0-3.615,0-5.059,0
					c-1.446,0-2.892,0-4.338,0v0.979h0.723c1.446,0.489,1.446,0.489,1.446,3.431v11.264c0,2.937,0,2.937-1.446,3.426h-0.723v0.983
					c1.446,0,2.892,0,4.338,0c1.444,0,2.89,0,5.059,0v-0.983h-1.446c-0.723-0.489-1.446-0.489-1.446-3.426V408.938"/>
				<path fill="#FFFFFF" d="M380.242,412.364c0-2.937,0-4.895,0.724-5.874c0-0.494,0.723-0.983,1.446-0.983h0.723
					c0-0.489,0-0.979,0-0.979c-1.446,0-2.169,0-3.615,0s-2.169,0-3.615,0c-0.723,0-0.723,0.49,0,0.979h0.724
					c0.723,0,1.445,0.489,1.445,0.983c0.724,0.979,0.724,2.938,0.724,5.874v3.921c0,0.489,0,0.979,0,1.468
					c-0.724-0.489-2.169-1.958-2.893-3.431l-2.892-2.938c-2.893-3.426-5.062-5.389-5.062-6.857c-0.723,0-1.445,0-2.892,0
					c-0.724,0-2.167,0-3.613,0c-0.723,0-0.723,0.49-0.723,0.979h1.446c0.723,0.489,1.446,0.489,1.446,0.983c0,0.489,0,0.979,0,2.938
					v7.347c0,2.447,0,4.895,0,5.874c-0.723,0.489-0.723,0.489-2.169,0.979c-0.723,0.494-0.723,0.983,0,0.983c0.723,0,2.169,0,2.89,0
					c1.446,0,2.893,0,4.339,0c0,0,0-0.489,0-0.983h-0.724c-0.723-0.489-1.445-0.489-2.169-0.979c0-0.979,0-3.427,0-5.874v-5.879
					c0-0.979,0-1.468,0-1.958c0.724,0.49,1.446,1.958,3.615,3.916l6.507,8.815c1.446,1.958,2.893,3.431,2.893,3.431
					c0.723,0,1.445-0.489,1.445-0.979c0-0.983,0-2.941,0-4.899V412.364"/>
				<path fill="#FFFFFF" d="M404.82,419.222c0-1.469,0.724-1.469,1.446-1.958h0.723v-0.979c-1.445,0-2.892,0-4.338,0
					s-2.892,0-5.061,0v0.979h1.445c1.446,0.489,1.446,0.489,1.446,1.958v1.958c0,1.958,0,2.447-2.169,2.447
					c-0.723,0-2.169,0-3.615-0.979c-2.169-1.469-3.615-3.916-3.615-8.326c0-4.895,2.169-8.815,7.23-8.815
					c2.892,0,4.338,1.473,5.784,4.41c0,0,0.723,0,0.723-0.489c0-1.469,0-3.921,0-4.9c-1.445,0-2.892-0.489-6.507-0.489
					c-2.169,0-5.062,0.489-6.507,1.469c-4.338,1.963-5.784,5.389-5.784,9.305c0,4.41,2.169,7.837,5.784,9.31
					c2.169,0.979,4.338,0.979,6.507,0.979c1.446,0,4.338-0.489,5.062-0.489c0.723-0.489,1.445-0.489,2.169-0.489
					c0-0.494,0-0.983,0-0.983c-0.724,0-0.724-0.489-0.724-1.958V419.222"/>
				<path fill="#FFFFFF" d="M414.214,420.201c0,2.937,0,2.937-1.445,3.426h-1.446v0.983c2.169,0,3.615,0,5.062,0
					c1.445,0,2.892,0,5.061,0v-0.983h-0.723c-1.446-0.489-2.169-0.489-2.169-3.426v-13.222c0-0.983,0-0.983,0.723-0.983h2.169
					c2.169,0,2.893,1.474,3.615,3.432c0,0,0.723,0,0.723-0.49c0-1.468,0-3.92,0.724-4.899l-0.724-0.489c0,0,0,0,0,0.489
					c-0.723,0.489-0.723,0.489-2.892,0.489h-11.568c-2.165,0-2.165,0-2.888-0.489c0-0.489,0-0.489,0-0.489s-0.723,0-0.723,0.489
					c0,0.979,0,2.941-0.724,4.899c0,0.49,0.724,0.49,0.724,0.49c1.445-2.448,2.169-3.432,4.333-3.432h1.446
					c0.723,0,0.723,0,0.723,0.983V420.201"/>
				<path fill-rule="evenodd" clip-rule="evenodd" fill="#FFFFFF" d="M443.13,414.812c0,4.899-1.445,8.815-5.783,8.815
					c-5.057,0-6.503-5.874-6.503-9.794c0-4.896,2.169-8.326,5.784-8.326C440.239,405.507,443.13,409.428,443.13,414.812
					 M437.347,404.038c-6.503,0-10.841,4.41-10.841,10.773c0,6.368,4.338,10.288,10.122,10.288c6.502,0,10.841-3.92,10.841-10.777
					C447.469,408.448,443.13,404.038,437.347,404.038z"/>
				<path fill="#FFFFFF" d="M469.155,412.364c0-2.937,0-4.895,0-5.874c0.723-0.494,0.723-0.983,2.169-0.983
					c0.723-0.489,0.723-0.979,0-0.979s-2.169,0-2.892,0c-1.446,0-2.893,0-4.339,0c0,0,0,0.49,0,0.979h0.724
					c0.723,0,1.446,0.489,2.169,0.983c0,0.979,0,2.938,0,5.874v3.921c0,0.489,0,0.979,0,1.468c-0.723-0.489-1.446-1.958-2.893-3.431
					l-2.887-2.938c-2.17-3.426-4.339-5.389-5.062-6.857c0,0-1.446,0-2.169,0c-1.446,0-2.893,0-4.338,0c0,0,0,0.49,0,0.979h0.723
					c1.446,0.489,1.446,0.489,1.446,0.983c0.723,0.489,0.723,0.979,0.723,2.938v7.347c0,2.447,0,4.895-0.723,5.874
					c0,0.489-0.724,0.489-1.446,0.979h-0.723c0,0.494,0,0.983,0,0.983c1.445,0,2.169,0,3.615,0c1.445,0,2.169,0,4.338,0
					c0,0,0-0.489,0-0.983h-1.446c-0.723-0.489-1.446-0.489-1.446-0.979c-0.723-0.979-0.723-3.427-0.723-5.874v-5.879
					c0-0.979,0-1.468,0-1.958c0.723,0.49,2.169,1.958,3.615,3.916l7.226,8.815c1.446,1.958,2.169,3.431,2.169,3.431
					c0.723,0,1.446-0.489,2.169-0.979c0-0.983,0-2.941,0-4.899V412.364"/>
				<path fill="#FFFFFF" d="M138.794,372.208c0,4.405,0,4.405-2.167,4.895l-2.169,0.489c-0.723,0-0.723,0.979,0,1.469
					c2.892,0,5.782-0.489,7.951-0.489c1.446,0,4.338,0.489,7.23,0.489c0-0.489,0-1.469,0-1.469l-2.169-0.489
					c-2.169-0.489-2.169-0.489-2.169-4.895v-20.083c0-1.469,0-1.469,1.446-1.469h2.169c3.613,0,4.336,1.958,5.059,4.899
					c0.723,0.49,1.446,0.49,2.169,0c-0.723-2.451,0-6.367,0-7.836v-0.489c-0.723,0-0.723,0.489-0.723,0.489
					c-0.723,0.979-1.446,0.979-4.336,0.979h-17.35c-2.892,0-3.615-0.49-3.615-0.979c0,0,0-0.489-0.723-0.489
					c0,0,0,0.489-0.723,0.489c0,1.958,0,4.405-1.446,7.836c0.723,0.49,1.446,0.49,2.169,0.49c1.446-3.432,2.169-5.39,5.061-5.39
					h2.892c1.444,0,1.444,0.49,1.444,1.469V372.208"/>
				<path fill="#FFFFFF" d="M179.999,364.371c2.169,0,2.169,0,2.169,1.469v6.368c0,4.405,0,4.405-2.169,4.895l-1.446,0.489
					c0,0,0,0.979,0,1.469c2.169,0,5.061-0.489,7.23-0.489c2.169,0,4.338,0.489,6.505,0.489c0-0.489,0-1.469,0-1.469l-1.443-0.489
					c-2.169-0.489-2.169-0.489-2.169-4.895v-17.142c0-3.92,0-4.41,2.169-4.899h1.443c0-0.489,0-1.468,0-1.468
					c-2.167,0-4.335,0-6.505,0c-2.169,0-4.338,0-7.23,0c0,0,0,0.979,0,1.468h1.446c2.169,0.489,2.169,0.979,2.169,4.899v5.385
					c0,1.469,0,1.469-2.169,1.469h-9.397c-1.446,0-1.446,0-1.446-1.469v-5.385c0-3.92,0-4.41,2.169-4.899h0.723
					c0-0.489,0-1.468,0-1.468c-2.169,0-4.338,0-6.505,0c-2.169,0-4.338,0-6.507,0c-0.723,0-0.723,0.979,0,1.468h0.723
					c2.169,0.489,2.169,0.979,2.169,4.899v17.142c0,4.405,0,4.405-2.169,4.895l-0.723,0.489c-0.723,0-0.723,0.979,0,1.469
					c2.169,0,4.338-0.489,6.507-0.489c2.167,0,4.336,0.489,7.228,0.489c0-0.489,0-1.469,0-1.469l-1.446-0.489
					c-2.169-0.489-2.169-0.489-2.169-4.895v-6.368c0-1.469,0-1.469,1.446-1.469H179.999"/>
				<path fill="#FFFFFF" d="M208.192,352.614c0-1.958,0-1.958,1.446-1.958h3.615c2.169,0,3.615,0.49,4.338,1.469
					c0.723,0.489,1.443,1.958,1.443,3.431c0.723,0.49,2.169,0.49,2.169,0c0-2.941-0.723-6.367-0.723-6.856c-0.723,0-2.89,0-5.782,0
					h-10.122c-2.167,0-4.336,0-6.505,0c-0.723,0-0.723,0.979,0,1.468h0.723c2.169,0.489,2.892,0.979,2.892,4.899v17.142
					c0,4.405-0.723,4.405-2.892,4.895l-2.169,0.489c0,0,0,0.979,0,1.469c3.615,0,5.784-0.489,7.951-0.489h6.507
					c3.615,0,7.951,0.489,10.12,0.489c0.723-1.469,2.169-4.895,2.169-7.342c0-0.494-1.446-0.984-1.446-0.494
					c-2.892,5.389-4.335,5.389-8.674,5.389c-2.892,0-3.615-0.489-4.338-0.979c-0.723-0.979-0.723-2.448-0.723-4.41v-5.385
					c0-1.469,0-1.469,0.723-1.469h3.615c2.169,0,2.892,0.49,3.615,2.448v0.979c0,0.489,1.446,0.489,1.446,0c0-1.469,0-2.937,0-4.895
					c0-1.474,0-2.941,0-4.41c0-0.489-1.446-0.489-1.446-0.489v1.468c-0.723,1.958-1.446,2.448-3.615,2.448h-3.615
					c-0.723,0-0.723,0-0.723-1.469V352.614"/>
				<path fill="#FFFFFF" d="M291.325,350.167c0-0.489,0-1.468,0-1.468c-1.446,0-2.892,0-4.338,0c-1.446,0-2.89,0-4.336,0
					c-0.723,0-0.723,0.979-0.723,1.468h1.446c0.723,0.489,0.723,0.489,0.723,0.979c0,0.489-0.723,2.937-1.446,3.92
					c-2.169,5.385-4.338,11.263-6.507,16.158c0-0.49-0.723-1.469-2.169-4.405l-2.169-4.41c0-0.979,0-0.979,0-0.979
					c0-0.489,0.723-1.958,0.723-2.447c0.723-1.469,2.169-3.427,2.892-5.389c1.446-2.938,2.169-2.938,3.615-3.427h1.446
					c0-0.489,0-1.468,0-1.468c-1.446,0-2.892,0-5.061,0c-1.446,0-2.892,0-4.336,0c0,0-0.723,0.979,0,1.468h1.444
					c0.723,0.489,0.723,0.489,0.723,0.979c0,0,0,1.468-1.446,3.431v0.979c-0.721,0.979-0.721,1.469-1.444,2.448
					c-0.723-0.49-0.723-1.469-1.446-2.448l-1.446-3.431c0-0.489,0-0.979,0-1.469l0.723-0.489h0.723c0.723-0.489,0.723-1.468,0-1.468
					s-2.892,0-5.061,0s-3.615,0-5.784,0c-0.721,0-0.721,0.979,0,1.468c2.169,0,2.169,0.489,3.615,2.938l4.338,9.305
					c0,0.494,0,0.983,0,1.473c0,0,0,0.979-0.723,1.958v1.469c-1.446,1.958-2.169,3.426-2.892,4.41c0-1.474-0.723-1.963-2.169-4.899
					l-4.336-10.284c-1.446-2.941-2.169-5.389-2.169-5.879c0,0,0-0.489,0.723-0.489h0.723c0.723-0.489,0.723-1.468,0-1.468
					c-1.446,0-3.615,0-5.062,0c-2.892,0-4.338,0-6.505,0c0,0,0,0.979,0,1.468h1.446c1.444,0.489,1.444,0.489,2.89,3.427l7.23,16.162
					c1.446,3.431,3.613,7.836,4.336,9.795c0.723,0,0.723,0,1.446,0s0.723,0,1.446,0c0.723-1.469,0.723-2.938,1.446-4.406
					l2.169-4.899c0.723-0.979,1.446-1.958,2.169-2.937c0,0.489,0.723,1.958,1.446,3.426l1.446,4.41
					c0.721,1.469,1.444,2.938,2.167,3.916c0,0.49,0.723,0.49,1.446,0.49c0,0,0.723,0,1.446-0.49
					c2.169-5.874,7.23-17.141,9.397-22.525c1.446-2.941,2.169-4.41,2.892-4.899c0-0.489,0.723-0.979,1.446-1.469H291.325"/>
				<path fill="#FFFFFF" d="M312.288,364.371c2.169,0,2.169,0,2.169,1.469v6.368c0,4.405-0.723,4.405-2.892,4.895l-0.723,0.489
					c-0.721,0-0.721,0.979,0,1.469c2.169,0,4.338-0.489,6.507-0.489s4.338,0.489,6.507,0.489c0.723-0.489,0.723-1.469,0-1.469
					l-0.723-0.489c-2.169-0.489-2.169-0.489-2.169-4.895v-17.142c0-3.92,0-4.41,2.169-4.899h0.723c0.723-0.489,0.723-1.468,0-1.468
					c-2.169,0-4.338,0-6.507,0s-4.338,0-6.507,0c-0.721,0-0.721,0.979,0,1.468h0.723c2.169,0.489,2.892,0.979,2.892,4.899v5.385
					c0,1.469,0,1.469-2.169,1.469h-9.396c-2.169,0-2.169,0-2.169-1.469v-5.385c0-3.92,0-4.41,2.169-4.899h1.446
					c0-0.489,0-1.468,0-1.468c-2.169,0-4.338,0-6.505,0c-2.169,0-5.061,0-7.23,0c0,0,0,0.979,0,1.468h1.446
					c2.169,0.489,2.169,0.979,2.169,4.899v17.142c0,4.405,0,4.405-2.169,4.895l-1.446,0.489c0,0,0,0.979,0,1.469
					c2.892,0,5.061-0.489,7.23-0.489c2.167,0,4.336,0.489,6.505,0.489c0.723-0.489,0.723-1.469,0-1.469l-1.446-0.489
					c-2.169-0.489-2.169-0.489-2.169-4.895v-6.368c0-1.469,0-1.469,2.169-1.469H312.288"/>
				<path fill="#FFFFFF" d="M339.758,355.066c0-3.92,0.723-4.41,2.892-4.899h0.723c0.723-0.489,0.723-1.468,0-1.468
					c-2.169,0-4.338,0-6.505,0c-2.169,0-4.338,0-7.23,0c0,0,0,0.979,0,1.468h1.446c2.169,0.489,2.169,0.979,2.169,4.899v17.142
					c0,4.405,0,4.405-2.169,4.895l-1.446,0.489c0,0,0,0.979,0,1.469c2.892,0,5.061-0.489,7.23-0.489
					c2.167,0,4.335,0.489,6.505,0.489c0.723-0.489,0.723-1.469,0-1.469l-0.723-0.489c-2.169-0.489-2.892-0.489-2.892-4.895V355.066"
					/>
				<path fill="#FFFFFF" d="M359.277,372.208c0,4.405-0.723,4.405-2.169,4.895l-2.169,0.489c-0.723,0-0.723,0.979,0,1.469
					c2.892,0,5.784-0.489,7.953-0.489c1.443,0,4.336,0.489,7.228,0.489c0-0.489,0-1.469,0-1.469l-2.169-0.489
					c-2.169-0.489-2.169-0.489-2.169-4.895v-20.083c0-1.469,0-1.469,1.446-1.469h2.169c3.615,0,4.338,1.958,5.062,4.899
					c0,0.49,1.445,0.49,1.445,0c0-2.451,0.724-6.367,0.724-7.836c0,0,0-0.489-0.724-0.489v0.489
					c-0.723,0.979-1.445,0.979-4.338,0.979h-17.35c-2.89,0-3.613-0.49-3.613-0.979c0,0,0-0.489-0.723-0.489c0,0,0,0.489-0.723,0.489
					c0,1.958,0,4.405-1.446,7.836c0.723,0.49,1.446,0.49,2.169,0.49c0.723-3.432,2.167-5.39,5.059-5.39h2.892
					c1.446,0,1.446,0.49,1.446,1.469V372.208"/>
				<path fill="#FFFFFF" d="M391.083,352.614c0-1.958,0-1.958,1.446-1.958h3.615c2.169,0,3.615,0.49,4.338,1.469
					c0.723,0.489,1.446,1.958,2.169,3.431c0,0.49,1.446,0.49,1.446,0c0-2.941-0.723-6.367-0.723-6.856c-0.724,0-2.893,0-5.784,0
					h-10.122c-2.17,0-4.334,0-6.503,0c0,0,0,0.979,0,1.468h1.446c2.169,0.489,2.169,0.979,2.169,4.899v17.142
					c0,4.405,0,4.405-2.169,4.895l-2.17,0.489c-0.723,0-0.723,0.979,0,1.469c2.893,0,5.78-0.489,7.949-0.489h5.784
					c3.615,0,7.953,0.489,10.122,0.489c0.723-1.469,2.169-4.895,2.169-7.342c0-0.494-1.446-0.984-1.446-0.494
					c-2.892,5.389-4.338,5.389-7.953,5.389s-4.338-0.489-5.061-0.979c-0.724-0.979-0.724-2.448-0.724-4.41v-5.385
					c0-1.469,0-1.469,1.446-1.469h2.893c2.169,0,2.892,0.49,3.614,2.448v0.979c0.724,0.489,1.446,0.489,1.446,0
					c0-1.469,0-2.937,0-4.895c0-1.474,0-2.941,0-4.41c0-0.489-0.723-0.489-1.446-0.489v1.468c-0.723,1.958-1.445,2.448-3.614,2.448
					h-2.893c-1.446,0-1.446,0-1.446-1.469V352.614"/>
				<path fill="#FFFFFF" d="M455.422,364.371c2.169,0,2.169,0,2.169,1.469v6.368c0,4.405-0.724,4.405-2.893,4.895l-0.723,0.489
					c-0.723,0-0.723,0.979,0,1.469c2.169,0,4.338-0.489,6.507-0.489s4.334,0.489,6.503,0.489c0.723-0.489,0.723-1.469,0-1.469
					l-0.723-0.489c-2.17-0.489-2.17-0.489-2.17-4.895v-17.142c0-3.92,0-4.41,2.17-4.899h0.723c0.723-0.489,0.723-1.468,0-1.468
					c-2.169,0-4.334,0-6.503,0s-4.338,0-6.507,0c-0.723,0-0.723,0.979,0,1.468h0.723c2.169,0.489,2.893,0.979,2.893,4.899v5.385
					c0,1.469,0,1.469-2.169,1.469h-9.399c-2.169,0-2.169,0-2.169-1.469v-5.385c0-3.92,0-4.41,2.169-4.899h0.723
					c0.724-0.489,0.724-1.468,0-1.468c-1.445,0-4.338,0-5.784,0c-2.169,0-5.057,0-7.226,0c0,0,0,0.979,0,1.468h1.446
					c2.165,0.489,2.165,0.979,2.165,4.899v17.142c0,4.405,0,4.405-2.165,4.895l-1.446,0.489c0,0,0,0.979,0,1.469
					c2.169,0,5.057-0.489,7.226-0.489c1.446,0,4.339,0.489,6.508,0.489c0.723-0.489,0.723-1.469,0-1.469l-1.446-0.489
					c-2.169-0.489-2.169-0.489-2.169-4.895v-6.368c0-1.469,0-1.469,2.169-1.469H455.422"/>
				<path fill-rule="evenodd" clip-rule="evenodd" fill="#FFFFFF" d="M497.348,364.371c0,7.348-2.169,13.221-8.672,13.221
					c-7.23,0-9.399-9.305-9.399-14.688c0-7.837,3.615-12.736,8.676-12.736C493.733,350.167,497.348,356.535,497.348,364.371
					 M488.676,347.72c-9.399,0-16.63,7.347-16.63,16.162c0,9.794,6.508,15.669,15.906,15.669c10.118,0,16.625-5.875,16.625-16.158
					C504.578,354.083,498.071,347.72,488.676,347.72z"/>
				<path fill="#FFFFFF" d="M513.977,366.819c0,4.899,0.723,8.325,2.892,10.283c2.888,1.958,5.78,2.448,9.396,2.448
					c3.614,0,7.229-0.979,8.676-3.427c2.892-2.448,2.892-6.368,2.892-10.773v-5.389c0-3.427,0.724-6.857,0.724-8.326
					c0.723-0.979,1.446-0.979,2.892-1.469h0.724c0.723-0.489,0-1.468,0-1.468c-1.446,0-3.615,0-5.062,0c-2.169,0-3.615,0-6.507,0
					c0,0,0,0.979,0,1.468h1.446c1.445,0.489,2.169,0.489,2.892,1.469c0,1.469,0.723,4.899,0.723,8.326v5.878
					c0,5.879-2.169,11.263-7.953,11.263c-6.507,0-7.229-5.878-7.229-11.263v-10.773c0-3.92,0-4.41,2.169-4.899h0.723
					c0.724-0.489,0.724-1.468,0-1.468c-2.169,0-4.338,0-6.503,0c-2.169,0-4.338,0-6.507,0c-0.723,0-0.723,0.979,0,1.468h0.724
					c2.169,0.489,2.892,0.979,2.892,4.899V366.819"/>
				<path fill="#FFFFFF" d="M566.748,370.245c0-4.895-3.614-7.836-6.507-9.305l-2.892-1.469c-2.169-0.979-4.338-2.937-4.338-5.389
					c0-1.958,1.445-3.916,5.061-3.916c2.893,0,5.062,2.938,5.784,5.389c0.724,0.49,1.446,0.49,1.446,0c0-2.941,0-5.389-0.723-6.367
					c0-0.489-0.724-0.489-1.446-0.489c-1.446-0.49-3.615-0.979-5.062-0.979c-6.507,0-10.845,3.916-10.845,8.815
					c0,4.405,3.614,7.347,7.229,8.815c2.893,1.469,5.784,3.916,5.784,7.347c0,2.447-1.446,4.895-4.338,4.895
					c-4.338,0-7.23-4.405-7.953-7.347c-0.723-0.489-1.446-0.489-2.169,0c0,3.431,0.723,6.368,1.446,7.347
					c1.445,0.979,3.614,1.959,7.953,1.959C562.41,379.551,566.748,376.124,566.748,370.245"/>
				<path fill="#FFFFFF" d="M581.927,352.614c0-1.958,0-1.958,1.445-1.958h3.615c2.893,0,3.615,0.49,5.062,1.469
					c0,0.489,0.723,1.958,1.446,3.431c0.723,0.49,1.445,0.49,1.445,0c0-2.941,0-6.367,0-6.856c-0.723,0-3.615,0-6.507,0h-9.399
					c-2.169,0-4.338,0-6.507,0c-0.724,0-0.724,0.979-0.724,1.468h1.446c2.169,0.489,2.169,0.979,2.169,4.899v17.142
					c0,4.405,0,4.405-2.169,4.895l-2.169,0.489c0,0,0,0.979,0,1.469c3.615,0,5.784-0.489,7.953-0.489h5.784
					c3.615,0,7.953,0.489,10.846,0.489c0.718-1.469,1.445-4.895,1.445-7.342c0-0.494-0.728-0.984-1.445-0.494
					c-2.169,5.389-4.339,5.389-7.954,5.389c-3.614,0-4.338-0.489-5.061-0.979c0-0.979-0.723-2.448-0.723-4.41v-5.385
					c0-1.469,0-1.469,1.445-1.469h2.893c2.892,0,2.892,0.49,3.615,2.448v0.979c0.723,0.489,1.445,0.489,2.169,0
					c0-1.469,0-2.937,0-4.895c0-1.474,0-2.941,0-4.41c-0.724-0.489-1.446-0.489-2.169-0.489v1.468
					c-0.724,1.958-0.724,2.448-3.615,2.448h-2.893c-1.445,0-1.445,0-1.445-1.469V352.614"/>
				<polyline fill="#B5B8CC" points="458.314,158.676 458.314,142.517 262.409,142.517 262.409,160.637 82.41,158.676 
					85.302,161.126 85.302,312.458 259.517,312.947 632.529,312.458 632.529,161.126 634.698,158.676 458.314,158.676 				"/>
				<polygon fill="#FFFFFF" points="458.314,312.947 458.314,158.676 634.698,158.676 632.529,161.126 632.529,312.458 				"/>
				<polygon fill="none" stroke="#FFFFFF" stroke-width="1.19" stroke-miterlimit="3.864" points="458.314,312.947 458.314,158.676 
					634.698,158.676 632.529,161.126 632.529,312.458 				"/>
				<polyline fill="#687096" points="592.772,201.774 613.012,201.774 613.012,229.691 615.904,229.691 615.904,237.525 
					590.603,237.525 590.603,229.691 592.772,229.691 592.772,201.774 				"/>
				<polyline fill="#687096" points="549.396,201.774 569.64,201.774 569.64,229.691 572.528,229.691 572.528,237.525 
					547.227,237.525 547.227,229.691 549.396,229.691 549.396,201.774 				"/>
				<polyline fill="#687096" points="507.47,201.774 527.709,201.774 527.709,229.691 530.602,229.691 530.602,237.525 
					505.301,237.525 505.301,229.691 507.47,229.691 507.47,201.774 				"/>
				<polyline fill="#687096" points="465.54,201.774 485.784,201.774 485.784,229.691 488.676,229.691 488.676,237.525 
					463.375,237.525 463.375,229.691 465.54,229.691 465.54,201.774 				"/>
				<rect x="589.157" y="253.688" fill="#687096" width="28.193" height="48.484"/>
				<rect x="547.227" y="253.688" fill="#687096" width="28.192" height="48.484"/>
				<rect x="505.301" y="253.688" fill="#687096" width="28.192" height="48.484"/>
				<rect x="463.375" y="253.688" fill="#687096" width="28.188" height="48.484"/>
				<polyline fill="#FFFFFF" points="259.517,312.947 259.517,158.676 82.41,158.676 85.302,161.126 85.302,312.458 
					259.517,312.947 				"/>
				<polyline fill="#687096" points="165.543,201.774 145.301,201.774 145.301,229.691 142.409,229.691 142.409,237.525 
					167.71,237.525 167.71,229.691 165.543,229.691 165.543,201.774 				"/>
				<polyline fill="#687096" points="207.469,201.774 187.229,201.774 187.229,229.691 184.337,229.691 184.337,237.525 
					209.638,237.525 209.638,229.691 207.469,229.691 207.469,201.774 				"/>
				<polyline fill="#687096" points="249.397,201.774 229.157,201.774 229.157,229.691 226.265,229.691 226.265,237.525 
					251.566,237.525 251.566,229.691 249.397,229.691 249.397,201.774 				"/>
				<rect x="96.868" y="255.156" fill="#687096" width="28.191" height="48.486"/>
				
					<rect x="96.868" y="255.156" fill="none" stroke="#FFFFFF" stroke-width="1.19" stroke-miterlimit="3.864" width="28.191" height="48.486"/>
				<rect x="138.794" y="255.156" fill="#687096" width="28.193" height="48.486"/>
				
					<rect x="138.794" y="255.156" fill="none" stroke="#FFFFFF" stroke-width="1.19" stroke-miterlimit="3.864" width="28.193" height="48.486"/>
				<rect x="180.722" y="255.156" fill="#687096" width="28.193" height="48.486"/>
				
					<rect x="180.722" y="255.156" fill="none" stroke="#FFFFFF" stroke-width="1.19" stroke-miterlimit="3.864" width="28.193" height="48.486"/>
				<rect x="224.096" y="253.688" fill="#687096" width="28.193" height="48.484"/>
				<polyline fill="#687096" points="122.169,201.774 101.927,201.774 101.927,229.691 99.035,229.691 99.035,237.525 
					124.338,237.525 124.338,229.691 122.169,229.691 122.169,201.774 				"/>
				<polygon fill="#FFFFFF" points="423.614,107.744 455.422,107.744 455.422,120.478 				"/>
				<polygon fill="none" stroke="#FFFFFF" stroke-width="1.19" stroke-miterlimit="3.864" points="423.614,107.744 455.422,107.744 
					455.422,120.478 				"/>
				<g>
					<defs>
						<polyline id="SVGID_1_" points="473.493,125.375 358.554,78.359 244.338,125.375 245.782,125.375 251.566,131.741 
							465.54,131.741 472.046,125.375 473.493,125.375 						"/>
					</defs>
					<clipPath id="SVGID_2_">
						<use xlink:href="#SVGID_1_"  overflow="visible"/>
					</clipPath>
					<rect x="244.338" y="78.359" clip-path="url(#SVGID_2_)" fill="#B5B8CC" width="229.155" height="2.447"/>
					<rect x="244.338" y="80.807" clip-path="url(#SVGID_2_)" fill="#B7BACE" width="229.155" height="2.45"/>
					<rect x="244.338" y="83.256" clip-path="url(#SVGID_2_)" fill="#BBBDD0" width="229.155" height="2.45"/>
					<rect x="244.338" y="85.217" clip-path="url(#SVGID_2_)" fill="#BDC0D3" width="229.155" height="2.447"/>
					<rect x="244.338" y="87.664" clip-path="url(#SVGID_2_)" fill="#BFC2D4" width="229.155" height="2.45"/>
					<rect x="244.338" y="90.114" clip-path="url(#SVGID_2_)" fill="#C2C4D5" width="229.155" height="2.447"/>
					<rect x="244.338" y="92.561" clip-path="url(#SVGID_2_)" fill="#C6C8D8" width="229.155" height="2.45"/>
					<rect x="244.338" y="94.521" clip-path="url(#SVGID_2_)" fill="#C8CAD9" width="229.155" height="2.447"/>
					<rect x="244.338" y="96.969" clip-path="url(#SVGID_2_)" fill="#CBCDDC" width="229.155" height="2.45"/>
					<rect x="244.338" y="99.418" clip-path="url(#SVGID_2_)" fill="#CFD0DE" width="229.155" height="2.448"/>
					<rect x="244.338" y="101.866" clip-path="url(#SVGID_2_)" fill="#D1D3E0" width="229.155" height="2.449"/>
					<rect x="244.338" y="103.826" clip-path="url(#SVGID_2_)" fill="#D4D5E1" width="229.155" height="2.447"/>
					<rect x="244.338" y="106.273" clip-path="url(#SVGID_2_)" fill="#D7D9E4" width="229.155" height="2.45"/>
					<rect x="244.338" y="108.724" clip-path="url(#SVGID_2_)" fill="#DADBE6" width="229.155" height="2.449"/>
					<rect x="244.338" y="111.173" clip-path="url(#SVGID_2_)" fill="#DEDFE8" width="229.155" height="2.448"/>
					<rect x="244.338" y="113.131" clip-path="url(#SVGID_2_)" fill="#E1E2EA" width="229.155" height="2.448"/>
					<rect x="244.338" y="115.579" clip-path="url(#SVGID_2_)" fill="#E4E5ED" width="229.155" height="2.45"/>
					<rect x="244.338" y="118.028" clip-path="url(#SVGID_2_)" fill="#E7E7EE" width="229.155" height="2.45"/>
					<rect x="244.338" y="120.478" clip-path="url(#SVGID_2_)" fill="#ECECF2" width="229.155" height="2.447"/>
					<rect x="244.338" y="122.436" clip-path="url(#SVGID_2_)" fill="#EFEFF3" width="229.155" height="2.45"/>
					<rect x="244.338" y="124.886" clip-path="url(#SVGID_2_)" fill="#F2F3F6" width="229.155" height="2.447"/>
					<rect x="244.338" y="127.333" clip-path="url(#SVGID_2_)" fill="#F9F9FB" width="229.155" height="2.45"/>
					<rect x="244.338" y="129.783" clip-path="url(#SVGID_2_)" fill="#FFFFFF" width="229.155" height="2.448"/>
				</g>
				<polygon fill="none" stroke="#002254" stroke-width="1.19" stroke-miterlimit="3.864" points="473.493,125.375 358.554,78.359 
					244.338,125.375 245.782,125.375 251.566,131.741 465.54,131.741 472.046,125.375 				"/>
				<rect x="229.157" y="158.676" fill="#FFFFFF" width="26.747" height="12.734"/>
				
					<rect x="229.157" y="158.676" fill="none" stroke="#002254" stroke-width="1.19" stroke-miterlimit="3.864" width="26.747" height="12.734"/>
				<polyline fill="none" stroke="#002254" stroke-width="1.19" stroke-miterlimit="3.864" points="460.483,171.41 488.676,171.41 
					488.676,158.676 				"/>
				<rect x="461.929" y="158.676" fill="#989DB8" width="26.747" height="12.734"/>
				
					<rect x="461.929" y="158.676" fill="none" stroke="#FFFFFF" stroke-width="1.19" stroke-miterlimit="3.864" width="26.747" height="12.734"/>
				<polyline fill="#FFFFFF" points="123.615,200.306 103.373,200.306 103.373,228.71 100.481,228.71 100.481,236.057 
					125.782,236.057 125.782,228.71 123.615,228.71 123.615,200.306 				"/>
				<rect x="106.988" y="204.224" fill="#687096" width="13.012" height="25.467"/>
				
					<rect x="106.988" y="204.224" fill="none" stroke="#FFFFFF" stroke-width="1.19" stroke-miterlimit="3.864" width="13.012" height="25.467"/>
				<path fill="none" stroke="#FFFFFF" stroke-width="1.19" stroke-miterlimit="3.864" d="M119.277,223.323h-12.289
					 M119.277,216.958h-12.289 M119.277,210.59h-12.289 M113.493,204.224v25.467"/>
				<polyline fill="#FFFFFF" points="166.987,200.306 146.024,200.306 146.024,228.71 143.855,228.71 143.855,236.057 
					169.156,236.057 169.156,228.71 166.987,228.71 166.987,200.306 				"/>
				<rect x="150.362" y="204.224" fill="#687096" width="13.012" height="25.467"/>
				
					<rect x="150.362" y="204.224" fill="none" stroke="#FFFFFF" stroke-width="1.19" stroke-miterlimit="3.864" width="13.012" height="25.467"/>
				<path fill="none" stroke="#FFFFFF" stroke-width="1.19" stroke-miterlimit="3.864" d="M162.651,223.323h-12.289
					 M162.651,216.958h-12.289 M162.651,210.59h-12.289 M156.144,204.224v25.467"/>
				<polyline fill="#FFFFFF" points="208.915,200.306 187.952,200.306 187.952,228.71 185.783,228.71 185.783,236.057 
					211.084,236.057 211.084,228.71 208.915,228.71 208.915,200.306 				"/>
				<rect x="192.288" y="204.224" fill="#687096" width="13.012" height="25.467"/>
				
					<rect x="192.288" y="204.224" fill="none" stroke="#FFFFFF" stroke-width="1.19" stroke-miterlimit="3.864" width="13.012" height="25.467"/>
				<path fill="none" stroke="#FFFFFF" stroke-width="1.19" stroke-miterlimit="3.864" d="M204.577,223.323h-12.289
					 M204.577,216.958h-12.289 M204.577,210.59h-12.289 M198.795,204.224v25.467"/>
				<polyline fill="#FFFFFF" points="250.843,200.306 230.603,200.306 230.603,228.71 227.711,228.71 227.711,236.057 
					253.012,236.057 253.012,228.71 250.843,228.71 250.843,200.306 				"/>
				<rect x="234.216" y="204.224" fill="#687096" width="13.012" height="25.467"/>
				
					<rect x="234.216" y="204.224" fill="none" stroke="#FFFFFF" stroke-width="1.19" stroke-miterlimit="3.864" width="13.012" height="25.467"/>
				<path fill="none" stroke="#FFFFFF" stroke-width="1.19" stroke-miterlimit="3.864" d="M246.505,223.323h-12.289
					 M246.505,216.958h-12.289 M246.505,210.59h-12.289 M240.723,204.224v25.467"/>
				<rect x="99.035" y="252.708" fill="#FFFFFF" width="28.193" height="48.485"/>
				
					<rect x="99.035" y="252.708" fill="none" stroke="#FFFFFF" stroke-width="1.19" stroke-miterlimit="3.864" width="28.193" height="48.485"/>
				<rect x="105.542" y="259.074" fill="#687096" width="15.181" height="35.753"/>
				
					<rect x="105.542" y="259.074" fill="none" stroke="#FFFFFF" stroke-width="1.19" stroke-miterlimit="3.864" width="15.181" height="35.753"/>
				<path fill="none" stroke="#FFFFFF" stroke-width="1.19" stroke-miterlimit="3.864" d="M110.603,259.074v35.753 M115.662,259.074
					v35.753"/>
				<g>
					<defs>
						<path id="SVGID_3_" d="M130.843,252.708H96.868c0,0,5.059-10.284,16.625-10.284
							C124.338,242.425,130.843,252.708,130.843,252.708"/>
					</defs>
					<clipPath id="SVGID_4_">
						<use xlink:href="#SVGID_3_"  overflow="visible"/>
					</clipPath>
					<polyline clip-path="url(#SVGID_4_)" fill="#FFFFFF" points="109.88,236.546 130.12,253.688 131.566,252.219 111.326,235.078 
											"/>
					<polyline clip-path="url(#SVGID_4_)" fill="#E4E5ED" points="108.434,238.506 128.674,255.646 130.12,253.688 109.88,236.546 
											"/>
					<polyline clip-path="url(#SVGID_4_)" fill="#D1D3E0" points="106.988,239.975 127.228,257.116 128.674,255.646 
						108.434,238.506 					"/>
					<polyline clip-path="url(#SVGID_4_)" fill="#BEC1D3" points="105.542,241.933 125.782,259.074 127.228,257.116 
						106.988,239.975 					"/>
					<polyline clip-path="url(#SVGID_4_)" fill="#AEB1C7" points="104.096,243.404 124.338,260.545 125.782,259.074 
						104.819,241.933 					"/>
					<polyline clip-path="url(#SVGID_4_)" fill="#9EA3BD" points="101.927,245.362 122.892,262.503 124.338,261.034 
						103.373,243.893 					"/>
					<polyline clip-path="url(#SVGID_4_)" fill="#8F95B2" points="100.481,247.322 121.446,264.461 122.892,262.503 
						101.927,245.362 					"/>
					<polyline clip-path="url(#SVGID_4_)" fill="#8289A9" points="99.035,248.791 120,265.932 121.446,264.461 100.481,247.322 
											"/>
					<polyline clip-path="url(#SVGID_4_)" fill="#757C9F" points="97.591,250.749 118.554,267.89 120,265.932 99.035,248.791 					
						"/>
					<polyline clip-path="url(#SVGID_4_)" fill="#687096" points="96.145,252.219 117.108,269.36 117.831,267.89 97.591,250.749 
											"/>
				</g>
				<path fill="none" stroke="#FFFFFF" stroke-width="1.19" stroke-miterlimit="3.864" d="M120.723,285.521h-15.181
					 M120.723,276.705h-15.181 M120.723,267.89h-15.181"/>
				<rect x="140.963" y="252.708" fill="#FFFFFF" width="28.193" height="48.485"/>
				
					<rect x="140.963" y="252.708" fill="none" stroke="#FFFFFF" stroke-width="1.19" stroke-miterlimit="3.864" width="28.193" height="48.485"/>
				<rect x="147.47" y="259.074" fill="#687096" width="15.181" height="35.753"/>
				
					<rect x="147.47" y="259.074" fill="none" stroke="#FFFFFF" stroke-width="1.19" stroke-miterlimit="3.864" width="15.181" height="35.753"/>
				<path fill="none" stroke="#FFFFFF" stroke-width="1.19" stroke-miterlimit="3.864" d="M152.529,259.074v35.753 M157.59,259.074
					v35.753"/>
				<g>
					<defs>
						<polyline id="SVGID_5_" points="172.771,252.708 138.794,252.708 155.421,242.425 172.771,252.708 						"/>
					</defs>
					<clipPath id="SVGID_6_">
						<use xlink:href="#SVGID_5_"  overflow="visible"/>
					</clipPath>
					<polyline clip-path="url(#SVGID_6_)" fill="#FFFFFF" points="151.085,237.525 171.325,254.177 172.771,252.708 
						152.529,235.567 					"/>
					<polyline clip-path="url(#SVGID_6_)" fill="#E4E5ED" points="149.639,238.996 169.879,256.137 171.325,254.177 
						151.085,237.525 					"/>
					<polyline clip-path="url(#SVGID_6_)" fill="#D1D3E0" points="148.916,240.954 168.433,257.605 169.879,256.137 
						149.639,238.996 					"/>
					<polyline clip-path="url(#SVGID_6_)" fill="#BEC1D3" points="147.47,242.425 166.987,259.563 168.433,257.605 148.916,240.954 
											"/>
					<polyline clip-path="url(#SVGID_6_)" fill="#AEB1C7" points="146.024,244.383 165.543,261.034 166.987,259.563 147.47,242.425 
											"/>
					<polyline clip-path="url(#SVGID_6_)" fill="#9EA3BD" points="144.578,245.851 164.097,262.992 165.543,261.034 
						146.024,244.383 					"/>
					<polyline clip-path="url(#SVGID_6_)" fill="#8F95B2" points="143.132,247.812 162.651,264.461 164.097,262.992 
						144.578,245.851 					"/>
					<polyline clip-path="url(#SVGID_6_)" fill="#8289A9" points="141.686,249.28 161.928,265.932 162.651,264.461 143.132,247.812 
											"/>
					<polyline clip-path="url(#SVGID_6_)" fill="#757C9F" points="140.24,250.749 160.482,267.89 161.928,265.932 141.686,249.28 
											"/>
					<polyline clip-path="url(#SVGID_6_)" fill="#687096" points="138.794,252.708 159.036,269.36 160.482,267.89 140.24,250.749 
											"/>
				</g>
				<path fill="none" stroke="#FFFFFF" stroke-width="1.19" stroke-miterlimit="3.864" d="M162.651,285.521H147.47 M162.651,276.705
					H147.47 M162.651,267.89H147.47"/>
				<rect x="182.891" y="252.708" fill="#FFFFFF" width="28.193" height="48.485"/>
				
					<rect x="182.891" y="252.708" fill="none" stroke="#FFFFFF" stroke-width="1.19" stroke-miterlimit="3.864" width="28.193" height="48.485"/>
				<rect x="189.398" y="259.074" fill="#687096" width="15.179" height="35.753"/>
				
					<rect x="189.398" y="259.074" fill="none" stroke="#FFFFFF" stroke-width="1.19" stroke-miterlimit="3.864" width="15.179" height="35.753"/>
				<path fill="none" stroke="#FFFFFF" stroke-width="1.19" stroke-miterlimit="3.864" d="M194.457,259.074v35.753 M199.518,259.074
					v35.753"/>
				<g>
					<defs>
						<path id="SVGID_7_" d="M214.699,252.708h-33.977c0,0,5.061-10.284,16.627-10.284
							C208.915,242.425,214.699,252.708,214.699,252.708"/>
					</defs>
					<clipPath id="SVGID_8_">
						<use xlink:href="#SVGID_7_"  overflow="visible"/>
					</clipPath>
					<polyline clip-path="url(#SVGID_8_)" fill="#FFFFFF" points="193.734,236.546 213.976,253.688 215.422,252.219 195.18,235.078 
											"/>
					<polyline clip-path="url(#SVGID_8_)" fill="#E4E5ED" points="192.288,238.506 212.53,255.646 213.976,253.688 193.734,236.546 
											"/>
					<polyline clip-path="url(#SVGID_8_)" fill="#D1D3E0" points="190.844,239.975 211.084,257.116 212.53,255.646 192.288,238.506 
											"/>
					<polyline clip-path="url(#SVGID_8_)" fill="#BEC1D3" points="189.398,241.933 209.638,259.074 211.084,257.116 
						190.844,239.975 					"/>
					<polyline clip-path="url(#SVGID_8_)" fill="#AEB1C7" points="187.952,243.404 208.192,260.545 209.638,259.074 
						189.398,241.933 					"/>
					<polyline clip-path="url(#SVGID_8_)" fill="#9EA3BD" points="186.506,245.362 206.746,262.503 208.192,261.034 
						187.952,243.893 					"/>
					<polyline clip-path="url(#SVGID_8_)" fill="#8F95B2" points="185.06,247.322 205.3,264.461 206.746,262.503 186.506,245.362 
											"/>
					<polyline clip-path="url(#SVGID_8_)" fill="#8289A9" points="183.614,248.791 203.856,265.932 205.3,264.461 184.337,247.322 
											"/>
					<polyline clip-path="url(#SVGID_8_)" fill="#757C9F" points="182.168,250.749 202.41,267.89 203.856,265.932 182.891,248.791 
											"/>
					<polyline clip-path="url(#SVGID_8_)" fill="#687096" points="179.999,252.219 200.964,269.36 202.41,267.89 181.445,250.749 
											"/>
				</g>
				<path fill="none" stroke="#FFFFFF" stroke-width="1.19" stroke-miterlimit="3.864" d="M204.577,285.521h-15.179
					 M204.577,276.705h-15.179 M204.577,267.89h-15.179"/>
				<rect x="224.819" y="252.708" fill="#FFFFFF" width="28.193" height="48.485"/>
				<rect x="231.324" y="259.074" fill="#687096" width="15.181" height="35.753"/>
				
					<rect x="231.324" y="259.074" fill="none" stroke="#FFFFFF" stroke-width="1.19" stroke-miterlimit="3.864" width="15.181" height="35.753"/>
				<path fill="none" stroke="#FFFFFF" stroke-width="1.19" stroke-miterlimit="3.864" d="M236.385,259.074v35.753 M241.446,259.074
					v35.753"/>
				<g>
					<defs>
						<polyline id="SVGID_9_" points="256.627,252.708 222.65,252.708 239.277,242.425 256.627,252.708 						"/>
					</defs>
					<clipPath id="SVGID_10_">
						<use xlink:href="#SVGID_9_"  overflow="visible"/>
					</clipPath>
					<polyline clip-path="url(#SVGID_10_)" fill="#FFFFFF" points="235.662,237.525 255.181,254.177 256.627,252.708 
						237.108,235.567 					"/>
					<polyline clip-path="url(#SVGID_10_)" fill="#E4E5ED" points="234.216,238.996 253.735,256.137 255.181,254.177 
						235.662,237.525 					"/>
					<polyline clip-path="url(#SVGID_10_)" fill="#D1D3E0" points="232.77,240.954 253.012,257.605 253.735,256.137 
						234.216,238.996 					"/>
					<polyline clip-path="url(#SVGID_10_)" fill="#BEC1D3" points="231.324,242.425 251.566,259.563 253.012,257.605 
						232.77,240.954 					"/>
					<polyline clip-path="url(#SVGID_10_)" fill="#AEB1C7" points="229.88,244.383 250.12,261.034 251.566,259.563 231.324,242.425 
											"/>
					<polyline clip-path="url(#SVGID_10_)" fill="#9EA3BD" points="228.434,245.851 248.674,262.992 250.12,261.034 229.88,244.383 
											"/>
					<polyline clip-path="url(#SVGID_10_)" fill="#8F95B2" points="226.988,247.812 247.228,264.461 248.674,262.992 
						228.434,245.851 					"/>
					<polyline clip-path="url(#SVGID_10_)" fill="#8289A9" points="225.542,249.28 245.782,265.932 247.228,264.461 
						226.988,247.812 					"/>
					<polyline clip-path="url(#SVGID_10_)" fill="#757C9F" points="224.096,250.749 244.338,267.89 245.782,265.932 225.542,249.28 
											"/>
					<polyline clip-path="url(#SVGID_10_)" fill="#687096" points="222.65,252.708 242.892,269.36 244.338,267.89 224.096,250.749 
											"/>
				</g>
				<path fill="none" stroke="#FFFFFF" stroke-width="1.19" stroke-miterlimit="3.864" d="M246.505,285.521h-15.181
					 M246.505,276.705h-15.181 M246.505,267.89h-15.181"/>
				<rect x="236.385" y="312.458" fill="#989DB8" width="11.566" height="1.958"/>
				<rect x="236.385" y="314.416" fill="#AEB1C7" width="11.566" height="1.958"/>
				<rect x="236.385" y="316.863" fill="#C4C7D7" width="11.566" height="1.961"/>
				<rect x="236.385" y="318.824" fill="#DEDFE8" width="11.566" height="1.958"/>
				<rect x="236.385" y="320.782" fill="#FFFFFF" width="11.566" height="1.96"/>
				
					<rect x="236.385" y="312.458" fill="none" stroke="#FFFFFF" stroke-width="1.19" stroke-miterlimit="3.864" width="11.566" height="10.284"/>
				<g>
					<defs>
						<rect id="SVGID_11_" x="195.903" y="312.458" width="33.254" height="10.284"/>
					</defs>
					<clipPath id="SVGID_12_">
						<use xlink:href="#SVGID_11_"  overflow="visible"/>
					</clipPath>
					<rect x="195.903" y="312.458" clip-path="url(#SVGID_12_)" fill="#989DB8" width="33.254" height="1.958"/>
					<rect x="195.903" y="314.416" clip-path="url(#SVGID_12_)" fill="#AEB1C7" width="33.254" height="1.958"/>
					<rect x="195.903" y="316.863" clip-path="url(#SVGID_12_)" fill="#C4C7D7" width="33.254" height="1.961"/>
					<rect x="195.903" y="318.824" clip-path="url(#SVGID_12_)" fill="#DEDFE8" width="33.254" height="1.958"/>
					<rect x="195.903" y="320.782" clip-path="url(#SVGID_12_)" fill="#FFFFFF" width="33.254" height="1.96"/>
				</g>
				
					<rect x="195.903" y="312.458" fill="none" stroke="#FFFFFF" stroke-width="1.19" stroke-miterlimit="3.864" width="33.254" height="10.284"/>
				<g>
					<defs>
						<rect id="SVGID_13_" x="155.421" y="312.458" width="33.254" height="10.284"/>
					</defs>
					<clipPath id="SVGID_14_">
						<use xlink:href="#SVGID_13_"  overflow="visible"/>
					</clipPath>
					<rect x="155.421" y="312.458" clip-path="url(#SVGID_14_)" fill="#989DB8" width="33.254" height="1.958"/>
					<rect x="155.421" y="314.416" clip-path="url(#SVGID_14_)" fill="#AEB1C7" width="33.254" height="1.958"/>
					<rect x="155.421" y="316.863" clip-path="url(#SVGID_14_)" fill="#C4C7D7" width="33.254" height="1.961"/>
					<rect x="155.421" y="318.824" clip-path="url(#SVGID_14_)" fill="#DEDFE8" width="33.254" height="1.958"/>
					<rect x="155.421" y="320.782" clip-path="url(#SVGID_14_)" fill="#FFFFFF" width="33.254" height="1.96"/>
				</g>
				
					<rect x="155.421" y="312.458" fill="none" stroke="#FFFFFF" stroke-width="1.19" stroke-miterlimit="3.864" width="33.254" height="10.284"/>
				<g>
					<defs>
						<rect id="SVGID_15_" x="114.216" y="312.458" width="33.254" height="10.284"/>
					</defs>
					<clipPath id="SVGID_16_">
						<use xlink:href="#SVGID_15_"  overflow="visible"/>
					</clipPath>
					<rect x="114.216" y="312.458" clip-path="url(#SVGID_16_)" fill="#989DB8" width="33.254" height="1.958"/>
					<rect x="114.216" y="314.416" clip-path="url(#SVGID_16_)" fill="#AEB1C7" width="33.254" height="1.958"/>
					<rect x="114.216" y="316.863" clip-path="url(#SVGID_16_)" fill="#C4C7D7" width="33.254" height="1.961"/>
					<rect x="114.216" y="318.824" clip-path="url(#SVGID_16_)" fill="#DEDFE8" width="33.254" height="1.958"/>
					<rect x="114.216" y="320.782" clip-path="url(#SVGID_16_)" fill="#FFFFFF" width="33.254" height="1.96"/>
				</g>
				
					<rect x="114.216" y="312.458" fill="none" stroke="#FFFFFF" stroke-width="1.19" stroke-miterlimit="3.864" width="33.254" height="10.284"/>
				<g>
					<defs>
						<rect id="SVGID_17_" x="81.687" y="312.458" width="25.301" height="10.284"/>
					</defs>
					<clipPath id="SVGID_18_">
						<use xlink:href="#SVGID_17_"  overflow="visible"/>
					</clipPath>
					<rect x="81.687" y="312.458" clip-path="url(#SVGID_18_)" fill="#989DB8" width="25.301" height="1.958"/>
					<rect x="81.687" y="314.416" clip-path="url(#SVGID_18_)" fill="#AEB1C7" width="25.301" height="1.958"/>
					<rect x="81.687" y="316.863" clip-path="url(#SVGID_18_)" fill="#C4C7D7" width="25.301" height="1.961"/>
					<rect x="81.687" y="318.824" clip-path="url(#SVGID_18_)" fill="#DEDFE8" width="25.301" height="1.958"/>
					<rect x="81.687" y="320.782" clip-path="url(#SVGID_18_)" fill="#FFFFFF" width="25.301" height="1.96"/>
				</g>
				
					<rect x="81.687" y="312.458" fill="none" stroke="#FFFFFF" stroke-width="1.19" stroke-miterlimit="3.864" width="25.301" height="10.284"/>
				<g>
					<defs>
						<polyline id="SVGID_19_" points="259.517,181.207 80.241,181.207 85.302,186.593 85.302,191.49 259.517,191.49 
							259.517,181.207 						"/>
					</defs>
					<clipPath id="SVGID_20_">
						<use xlink:href="#SVGID_19_"  overflow="visible"/>
					</clipPath>
					<rect x="80.241" y="181.696" clip-path="url(#SVGID_20_)" fill="#687096" width="179.276" height="1.958"/>
					<rect x="80.241" y="183.654" clip-path="url(#SVGID_20_)" fill="#848BAA" width="179.276" height="1.958"/>
					<rect x="80.241" y="185.612" clip-path="url(#SVGID_20_)" fill="#A6AAC2" width="179.276" height="1.96"/>
					<rect x="80.241" y="187.572" clip-path="url(#SVGID_20_)" fill="#CBCDDC" width="179.276" height="1.958"/>
					<rect x="80.241" y="189.53" clip-path="url(#SVGID_20_)" fill="#FFFFFF" width="179.276" height="1.96"/>
				</g>
				<rect x="216.145" y="143.006" fill="#FFFFFF" width="18.071" height="15.181"/>
				
					<rect x="216.145" y="143.006" fill="none" stroke="#FFFFFF" stroke-width="1.19" stroke-miterlimit="3.864" width="18.071" height="15.181"/>
				<rect x="229.157" y="158.676" fill="#989DB8" width="28.193" height="12.734"/>
				
					<rect x="229.157" y="158.676" fill="none" stroke="#FFFFFF" stroke-width="1.19" stroke-miterlimit="3.864" width="28.193" height="12.734"/>
				<rect x="187.229" y="158.676" fill="#989DB8" width="26.747" height="12.734"/>
				
					<rect x="187.229" y="158.676" fill="none" stroke="#FFFFFF" stroke-width="1.19" stroke-miterlimit="3.864" width="26.747" height="12.734"/>
				<rect x="147.47" y="158.676" fill="#989DB8" width="26.747" height="12.734"/>
				
					<rect x="147.47" y="158.676" fill="none" stroke="#FFFFFF" stroke-width="1.19" stroke-miterlimit="3.864" width="26.747" height="12.734"/>
				<rect x="108.434" y="158.676" fill="#989DB8" width="26.747" height="12.734"/>
				
					<rect x="108.434" y="158.676" fill="none" stroke="#FFFFFF" stroke-width="1.19" stroke-miterlimit="3.864" width="26.747" height="12.734"/>
				<path fill="none" stroke="#FFFFFF" stroke-width="1.19" stroke-miterlimit="3.864" d="M112.049,158.676v12.734 M115.662,158.676
					v12.734 M119.277,158.676v12.734 M123.615,158.676v12.734 M127.228,158.676v12.734 M130.843,158.676v12.734 M151.085,158.676
					v12.734 M155.421,158.676v12.734 M159.036,158.676v12.734 M162.651,158.676v12.734 M166.987,158.676v12.734 M170.602,158.676
					v12.734 M232.77,158.676v12.734 M236.385,158.676v12.734 M240.723,158.676v12.734 M244.338,158.676v12.734 M247.951,158.676
					v12.734 M251.566,158.676v12.734 M190.844,158.676v12.734 M194.457,158.676v12.734 M198.795,158.676v12.734 M202.41,158.676
					v12.734 M206.023,158.676v12.734 M209.638,158.676v12.734"/>
				<rect x="291.325" y="255.156" fill="#B5B8CC" width="28.193" height="48.486"/>
				
					<rect x="291.325" y="255.156" fill="none" stroke="#FFFFFF" stroke-width="1.19" stroke-miterlimit="3.864" width="28.193" height="48.486"/>
				<path fill="#B5B8CC" d="M291.325,255.156h30.362c0,0-5.061-10.284-16.627-10.284
					C294.217,244.872,291.325,255.156,291.325,255.156z"/>
				<path fill="none" stroke="#FFFFFF" stroke-width="1.19" stroke-miterlimit="3.864" d="M291.325,255.156h30.362
					c0,0-5.061-10.284-16.627-10.284C294.217,244.872,291.325,255.156,291.325,255.156z"/>
				<rect x="400.482" y="252.708" fill="#B5B8CC" width="28.193" height="48.485"/>
				
					<rect x="400.482" y="252.708" fill="none" stroke="#FFFFFF" stroke-width="1.19" stroke-miterlimit="3.864" width="28.193" height="48.485"/>
				<polygon fill="#B5B8CC" points="396.867,252.708 430.121,252.708 414.938,242.425 				"/>
				<polygon fill="none" stroke="#FFFFFF" stroke-width="1.19" stroke-miterlimit="3.864" points="396.867,252.708 430.121,252.708 
					414.938,242.425 				"/>
				<g>
					<defs>
						<polyline id="SVGID_21_" points="447.469,147.903 271.085,147.903 271.085,171.41 288.433,197.856 425.06,197.856 
							448.915,161.126 447.469,147.903 						"/>
					</defs>
					<clipPath id="SVGID_22_">
						<use xlink:href="#SVGID_21_"  overflow="visible"/>
					</clipPath>
					<rect x="271.085" y="147.903" clip-path="url(#SVGID_22_)" fill="#FFFFFF" width="177.83" height="2.447"/>
					<rect x="271.085" y="149.861" clip-path="url(#SVGID_22_)" fill="#F1F1F5" width="177.83" height="2.449"/>
					<rect x="271.085" y="152.311" clip-path="url(#SVGID_22_)" fill="#E7E7EE" width="177.83" height="2.448"/>
					<rect x="271.085" y="154.758" clip-path="url(#SVGID_22_)" fill="#DFE0E9" width="177.83" height="2.45"/>
					<rect x="271.085" y="156.719" clip-path="url(#SVGID_22_)" fill="#D6D8E4" width="177.83" height="2.447"/>
					<rect x="271.085" y="159.166" clip-path="url(#SVGID_22_)" fill="#CFD0DE" width="177.83" height="2.45"/>
					<rect x="271.085" y="161.616" clip-path="url(#SVGID_22_)" fill="#C7C9D8" width="177.83" height="2.45"/>
					<rect x="271.085" y="163.574" clip-path="url(#SVGID_22_)" fill="#BEC1D3" width="177.83" height="2.45"/>
					<rect x="271.085" y="166.023" clip-path="url(#SVGID_22_)" fill="#B8BCCF" width="177.83" height="2.45"/>
					<rect x="271.085" y="168.473" clip-path="url(#SVGID_22_)" fill="#B0B4C9" width="177.83" height="2.447"/>
					<rect x="271.085" y="170.431" clip-path="url(#SVGID_22_)" fill="#A9ADC5" width="177.83" height="2.45"/>
					<rect x="271.085" y="172.881" clip-path="url(#SVGID_22_)" fill="#A2A6BF" width="177.83" height="2.447"/>
					<rect x="271.085" y="175.328" clip-path="url(#SVGID_22_)" fill="#9CA1BC" width="177.83" height="2.45"/>
					<rect x="271.085" y="177.289" clip-path="url(#SVGID_22_)" fill="#969BB7" width="177.83" height="2.447"/>
					<rect x="271.085" y="179.736" clip-path="url(#SVGID_22_)" fill="#8F95B2" width="177.83" height="2.45"/>
					<rect x="271.085" y="182.186" clip-path="url(#SVGID_22_)" fill="#898FAE" width="177.83" height="2.447"/>
					<rect x="271.085" y="184.144" clip-path="url(#SVGID_22_)" fill="#848AAA" width="177.83" height="2.45"/>
					<rect x="271.085" y="186.593" clip-path="url(#SVGID_22_)" fill="#7E85A5" width="177.83" height="2.448"/>
					<rect x="271.085" y="189.041" clip-path="url(#SVGID_22_)" fill="#7880A2" width="177.83" height="2.449"/>
					<rect x="271.085" y="191.001" clip-path="url(#SVGID_22_)" fill="#737B9E" width="177.83" height="2.447"/>
					<rect x="271.085" y="193.448" clip-path="url(#SVGID_22_)" fill="#6E769A" width="177.83" height="2.45"/>
					<rect x="271.085" y="195.898" clip-path="url(#SVGID_22_)" fill="#687096" width="177.83" height="2.447"/>
				</g>
				<polyline fill="#FFFFFF" points="594.218,200.306 614.458,200.306 614.458,228.71 617.35,228.71 617.35,236.057 
					591.326,236.057 591.326,228.71 594.218,228.71 594.218,200.306 				"/>
				<rect x="597.829" y="204.224" fill="#687096" width="13.015" height="25.467"/>
				
					<rect x="597.829" y="204.224" fill="none" stroke="#FFFFFF" stroke-width="1.19" stroke-miterlimit="3.864" width="13.015" height="25.467"/>
				<path fill="none" stroke="#FFFFFF" stroke-width="1.19" stroke-miterlimit="3.864" d="M597.829,223.323h13.015 M597.829,216.958
					h13.015 M597.829,210.59h13.015 M604.335,204.224v25.467"/>
				<polyline fill="#FFFFFF" points="550.841,200.306 571.082,200.306 571.082,228.71 573.974,228.71 573.974,236.057 
					548.672,236.057 548.672,228.71 550.841,228.71 550.841,200.306 				"/>
				<rect x="554.457" y="204.224" fill="#687096" width="13.015" height="25.467"/>
				
					<rect x="554.457" y="204.224" fill="none" stroke="#FFFFFF" stroke-width="1.19" stroke-miterlimit="3.864" width="13.015" height="25.467"/>
				<path fill="none" stroke="#FFFFFF" stroke-width="1.19" stroke-miterlimit="3.864" d="M554.457,223.323h13.015 M554.457,216.958
					h13.015 M554.457,210.59h13.015 M560.964,204.224v25.467"/>
				<polyline fill="#FFFFFF" points="508.916,200.306 529.156,200.306 529.156,228.71 532.048,228.71 532.048,236.057 
					506.024,236.057 506.024,228.71 508.916,228.71 508.916,200.306 				"/>
				<rect x="512.531" y="204.224" fill="#687096" width="13.01" height="25.467"/>
				
					<rect x="512.531" y="204.224" fill="none" stroke="#FFFFFF" stroke-width="1.19" stroke-miterlimit="3.864" width="13.01" height="25.467"/>
				<path fill="none" stroke="#FFFFFF" stroke-width="1.19" stroke-miterlimit="3.864" d="M512.531,223.323h13.01 M512.531,216.958
					h13.01 M512.531,210.59h13.01 M519.034,204.224v25.467"/>
				<polyline fill="#FFFFFF" points="466.986,200.306 487.23,200.306 487.23,228.71 490.123,228.71 490.123,236.057 
					464.093,236.057 464.093,228.71 466.986,228.71 466.986,200.306 				"/>
				<rect x="470.601" y="204.224" fill="#687096" width="13.014" height="25.467"/>
				
					<rect x="470.601" y="204.224" fill="none" stroke="#FFFFFF" stroke-width="1.19" stroke-miterlimit="3.864" width="13.014" height="25.467"/>
				<path fill="none" stroke="#FFFFFF" stroke-width="1.19" stroke-miterlimit="3.864" d="M470.601,223.323h13.014 M470.601,216.958
					h13.014 M470.601,210.59h13.014 M477.108,204.224v25.467"/>
				<rect x="590.603" y="252.708" fill="#FFFFFF" width="28.193" height="48.485"/>
				<rect x="596.382" y="259.074" fill="#687096" width="15.184" height="35.753"/>
				
					<rect x="596.382" y="259.074" fill="none" stroke="#FFFFFF" stroke-width="1.19" stroke-miterlimit="3.864" width="15.184" height="35.753"/>
				<path fill="none" stroke="#FFFFFF" stroke-width="1.19" stroke-miterlimit="3.864" d="M606.505,259.074v35.753 M601.444,259.074
					v35.753"/>
				<g>
					<defs>
						<path id="SVGID_23_" d="M586.265,252.708h34.7c0,0-5.062-10.284-16.63-10.284
							C592.772,242.425,586.265,252.708,586.265,252.708"/>
					</defs>
					<clipPath id="SVGID_24_">
						<use xlink:href="#SVGID_23_"  overflow="visible"/>
					</clipPath>
					<polyline clip-path="url(#SVGID_24_)" fill="#989DB8" points="599.275,236.546 620.242,253.198 621.688,251.24 600.72,234.588 
											"/>
					<polyline clip-path="url(#SVGID_24_)" fill="#A2A6BF" points="597.829,238.015 618.796,255.156 620.242,253.198 
						599.275,236.546 					"/>
					<polyline clip-path="url(#SVGID_24_)" fill="#ACB0C6" points="596.382,239.975 618.073,256.627 619.519,255.156 
						597.829,238.015 					"/>
					<polyline clip-path="url(#SVGID_24_)" fill="#B5B8CC" points="594.941,241.933 616.627,258.585 618.073,256.627 
						596.382,239.975 					"/>
					<polyline clip-path="url(#SVGID_24_)" fill="#BEC1D3" points="593.496,243.404 615.181,260.545 616.627,258.585 
						594.941,241.933 					"/>
					<polyline clip-path="url(#SVGID_24_)" fill="#C9CBDB" points="592.049,245.362 613.735,262.014 615.181,260.545 
						593.496,243.404 					"/>
					<polyline clip-path="url(#SVGID_24_)" fill="#D4D5E1" points="590.603,247.322 612.289,263.972 613.735,262.014 
						592.049,245.362 					"/>
					<polyline clip-path="url(#SVGID_24_)" fill="#E0E1E9" points="589.157,248.791 610.843,265.932 612.289,263.972 
						590.603,247.322 					"/>
					<polyline clip-path="url(#SVGID_24_)" fill="#EEEEF3" points="587.71,250.749 609.397,267.4 610.843,265.932 589.157,248.791 
											"/>
					<polyline clip-path="url(#SVGID_24_)" fill="#FFFFFF" points="586.265,252.708 607.951,269.36 609.397,267.4 587.71,250.749 
											"/>
				</g>
				<path fill="none" stroke="#FFFFFF" stroke-width="1.19" stroke-miterlimit="3.864" d="M596.382,285.521h15.906 M596.382,276.705
					h15.906 M596.382,267.89h15.906"/>
				<rect x="548.672" y="252.708" fill="#FFFFFF" width="28.193" height="48.485"/>
				<rect x="554.457" y="259.074" fill="#687096" width="15.184" height="35.753"/>
				
					<rect x="554.457" y="259.074" fill="none" stroke="#FFFFFF" stroke-width="1.19" stroke-miterlimit="3.864" width="15.184" height="35.753"/>
				<path fill="none" stroke="#FFFFFF" stroke-width="1.19" stroke-miterlimit="3.864" d="M564.58,259.074v35.753 M559.518,259.074
					v35.753"/>
				<g>
					<defs>
						<polyline id="SVGID_25_" points="544.334,252.708 579.035,252.708 562.41,242.425 544.334,252.708 						"/>
					</defs>
					<clipPath id="SVGID_26_">
						<use xlink:href="#SVGID_25_"  overflow="visible"/>
					</clipPath>
					<polyline clip-path="url(#SVGID_26_)" fill="#989DB8" points="555.903,238.015 577.588,254.667 579.035,252.708 
						557.349,236.057 					"/>
					<polyline clip-path="url(#SVGID_26_)" fill="#A2A6BF" points="554.457,239.485 576.143,256.627 577.588,254.667 
						555.903,238.015 					"/>
					<polyline clip-path="url(#SVGID_26_)" fill="#AEB1C7" points="553.011,241.443 574.697,258.095 576.143,256.627 
						554.457,239.485 					"/>
					<polyline clip-path="url(#SVGID_26_)" fill="#B8BCCF" points="551.565,243.404 573.25,260.056 574.697,258.095 
						553.011,241.443 					"/>
					<polyline clip-path="url(#SVGID_26_)" fill="#C4C7D7" points="550.119,245.362 571.804,262.014 573.25,260.056 
						551.565,243.404 					"/>
					<polyline clip-path="url(#SVGID_26_)" fill="#D0D1DF" points="548.672,247.322 570.363,263.972 571.804,262.014 
						550.119,245.362 					"/>
					<polyline clip-path="url(#SVGID_26_)" fill="#DEDFE8" points="547.227,248.791 568.917,265.932 570.363,263.972 
						548.672,247.322 					"/>
					<polyline clip-path="url(#SVGID_26_)" fill="#EBEBF1" points="545.781,250.749 567.471,267.4 568.917,265.932 547.227,248.791 
											"/>
					<polyline clip-path="url(#SVGID_26_)" fill="#FFFFFF" points="544.334,252.708 566.025,269.36 567.471,267.4 545.781,250.749 
											"/>
				</g>
				<path fill="none" stroke="#FFFFFF" stroke-width="1.19" stroke-miterlimit="3.864" d="M554.457,285.521h15.184 M554.457,276.705
					h15.184 M554.457,267.89h15.184"/>
				<rect x="506.024" y="252.708" fill="#FFFFFF" width="28.193" height="48.485"/>
				<rect x="512.531" y="259.074" fill="#687096" width="15.179" height="35.753"/>
				
					<rect x="512.531" y="259.074" fill="none" stroke="#FFFFFF" stroke-width="1.19" stroke-miterlimit="3.864" width="15.179" height="35.753"/>
				<path fill="none" stroke="#FFFFFF" stroke-width="1.19" stroke-miterlimit="3.864" d="M522.649,259.074v35.753 M517.587,259.074
					v35.753"/>
				<g>
					<defs>
						<path id="SVGID_27_" d="M502.409,252.708h34.7c0,0-5.061-10.284-16.629-10.284
							C508.916,242.425,502.409,252.708,502.409,252.708"/>
					</defs>
					<clipPath id="SVGID_28_">
						<use xlink:href="#SVGID_27_"  overflow="visible"/>
					</clipPath>
					<polyline clip-path="url(#SVGID_28_)" fill="#989DB8" points="515.423,236.546 536.386,253.198 537.832,251.24 
						516.869,234.588 					"/>
					<polyline clip-path="url(#SVGID_28_)" fill="#A2A6BF" points="513.977,238.015 534.94,255.156 536.386,253.198 
						515.423,236.546 					"/>
					<polyline clip-path="url(#SVGID_28_)" fill="#ACB0C6" points="512.531,239.975 533.494,256.627 534.94,255.156 
						513.977,238.015 					"/>
					<polyline clip-path="url(#SVGID_28_)" fill="#B5B8CC" points="511.085,241.933 532.048,258.585 533.494,256.627 
						512.531,239.975 					"/>
					<polyline clip-path="url(#SVGID_28_)" fill="#BEC1D3" points="509.639,243.404 530.602,260.545 532.048,258.585 
						511.085,241.933 					"/>
					<polyline clip-path="url(#SVGID_28_)" fill="#C9CBDB" points="508.193,245.362 529.878,262.014 531.325,260.545 
						509.639,243.404 					"/>
					<polyline clip-path="url(#SVGID_28_)" fill="#D4D5E1" points="506.747,247.322 528.433,263.972 529.878,262.014 
						508.193,245.362 					"/>
					<polyline clip-path="url(#SVGID_28_)" fill="#E0E1E9" points="505.301,248.791 526.987,265.932 528.433,263.972 
						506.747,247.322 					"/>
					<polyline clip-path="url(#SVGID_28_)" fill="#EEEEF3" points="503.855,250.749 525.541,267.4 526.987,265.932 505.301,248.791 
											"/>
					<polyline clip-path="url(#SVGID_28_)" fill="#FFFFFF" points="502.409,252.708 524.095,269.36 525.541,267.4 503.855,250.749 
											"/>
				</g>
				<path fill="none" stroke="#FFFFFF" stroke-width="1.19" stroke-miterlimit="3.864" d="M512.531,285.521h15.179 M512.531,276.705
					h15.179 M512.531,267.89h15.179"/>
				<rect x="464.093" y="252.708" fill="#FFFFFF" width="28.193" height="48.485"/>
				<rect x="470.601" y="259.074" fill="#687096" width="15.183" height="35.753"/>
				
					<rect x="470.601" y="259.074" fill="none" stroke="#FFFFFF" stroke-width="1.19" stroke-miterlimit="3.864" width="15.183" height="35.753"/>
				<path fill="none" stroke="#FFFFFF" stroke-width="1.19" stroke-miterlimit="3.864" d="M480.723,259.074v35.753 M475.662,259.074
					v35.753"/>
				<g>
					<defs>
						<polyline id="SVGID_29_" points="460.483,252.708 495.179,252.708 478.554,242.425 460.483,252.708 						"/>
					</defs>
					<clipPath id="SVGID_30_">
						<use xlink:href="#SVGID_29_"  overflow="visible"/>
					</clipPath>
					<polyline clip-path="url(#SVGID_30_)" fill="#989DB8" points="472.046,238.015 493.733,254.667 495.179,252.708 
						473.493,236.057 					"/>
					<polyline clip-path="url(#SVGID_30_)" fill="#A2A6BF" points="470.601,239.485 492.287,256.627 493.733,254.667 
						472.046,238.015 					"/>
					<polyline clip-path="url(#SVGID_30_)" fill="#AEB1C7" points="469.155,241.443 490.84,258.095 492.287,256.627 
						470.601,239.485 					"/>
					<polyline clip-path="url(#SVGID_30_)" fill="#B8BCCF" points="467.708,243.404 489.399,260.056 490.84,258.095 
						469.155,241.443 					"/>
					<polyline clip-path="url(#SVGID_30_)" fill="#C4C7D7" points="466.263,245.362 487.953,262.014 489.399,260.056 
						467.708,243.404 					"/>
					<polyline clip-path="url(#SVGID_30_)" fill="#D0D1DF" points="464.817,247.322 486.507,263.972 487.953,262.014 
						466.263,245.362 					"/>
					<polyline clip-path="url(#SVGID_30_)" fill="#DEDFE8" points="463.375,248.791 485.061,265.932 486.507,263.972 
						464.817,247.322 					"/>
					<polyline clip-path="url(#SVGID_30_)" fill="#EBEBF1" points="461.929,250.749 483.615,267.4 485.061,265.932 463.375,248.791 
											"/>
					<polyline clip-path="url(#SVGID_30_)" fill="#FFFFFF" points="460.483,252.708 482.169,269.36 483.615,267.4 461.929,250.749 
											"/>
				</g>
				<path fill="none" stroke="#FFFFFF" stroke-width="1.19" stroke-miterlimit="3.864" d="M470.601,285.521h15.183 M470.601,276.705
					h15.183 M470.601,267.89h15.183"/>
				<polygon fill="#FFFFFF" points="361.446,243.893 354.939,251.24 367.951,251.24 				"/>
				<polygon fill="none" stroke="#FFFFFF" stroke-width="1.19" stroke-miterlimit="3.864" points="361.446,243.893 354.939,251.24 
					367.951,251.24 				"/>
				<rect x="294.217" y="201.774" fill="#B5B8CC" width="20.24" height="35.751"/>
				
					<rect x="294.217" y="201.774" fill="none" stroke="#FFFFFF" stroke-width="1.19" stroke-miterlimit="3.864" width="20.24" height="35.751"/>
				<rect x="297.832" y="205.692" fill="#687096" width="13.01" height="25.467"/>
				
					<rect x="297.832" y="205.692" fill="none" stroke="#FFFFFF" stroke-width="1.19" stroke-miterlimit="3.864" width="13.01" height="25.467"/>
				<path fill="none" stroke="#FFFFFF" stroke-width="1.19" stroke-miterlimit="3.864" d="M297.832,224.792h12.289 M297.832,218.426
					h12.289 M297.832,212.061h12.289 M304.337,205.692v25.467"/>
				<rect x="403.375" y="201.774" fill="#B5B8CC" width="20.239" height="35.751"/>
				
					<rect x="403.375" y="201.774" fill="none" stroke="#FFFFFF" stroke-width="1.19" stroke-miterlimit="3.864" width="20.239" height="35.751"/>
				<rect x="406.989" y="205.692" fill="#687096" width="13.01" height="25.467"/>
				
					<rect x="406.989" y="205.692" fill="none" stroke="#FFFFFF" stroke-width="1.19" stroke-miterlimit="3.864" width="13.01" height="25.467"/>
				<path fill="none" stroke="#FFFFFF" stroke-width="1.19" stroke-miterlimit="3.864" d="M406.989,224.792h13.01 M406.989,218.426
					h13.01 M406.989,212.061h13.01 M413.492,205.692v25.467"/>
				<rect x="351.326" y="201.774" fill="#B5B8CC" width="20.24" height="35.751"/>
				
					<rect x="351.326" y="201.774" fill="none" stroke="#FFFFFF" stroke-width="1.19" stroke-miterlimit="3.864" width="20.24" height="35.751"/>
				<rect x="354.939" y="205.692" fill="#687096" width="13.012" height="25.467"/>
				
					<rect x="354.939" y="205.692" fill="none" stroke="#FFFFFF" stroke-width="1.19" stroke-miterlimit="3.864" width="13.012" height="25.467"/>
				
					<line fill="none" stroke="#002254" stroke-width="1.19" stroke-miterlimit="3.864" x1="361.446" y1="205.692" x2="361.446" y2="231.16"/>
				<path fill="none" stroke="#FFFFFF" stroke-width="1.19" stroke-miterlimit="3.864" d="M354.939,224.792h13.012 M354.939,218.426
					h13.012 M354.939,212.061h13.012"/>
				<polygon fill="#FFFFFF" points="271.085,308.048 271.085,298.254 274.698,298.254 274.698,308.54 				"/>
				<polygon fill="none" stroke="#FFFFFF" stroke-width="1.19" stroke-miterlimit="3.864" points="271.085,308.048 271.085,298.254 
					274.698,298.254 274.698,308.54 				"/>
				<polygon fill="#FFFFFF" points="274.698,308.54 274.698,302.172 279.759,302.172 279.759,304.622 282.651,304.622 
					282.651,308.54 				"/>
				<polygon fill="none" stroke="#FFFFFF" stroke-width="1.19" stroke-miterlimit="3.864" points="274.698,308.54 274.698,302.172 
					279.759,302.172 279.759,304.622 282.651,304.622 282.651,308.54 				"/>
				<rect x="282.651" y="304.622" fill="#FFFFFF" width="7.951" height="3.918"/>
				
					<rect x="282.651" y="304.622" fill="none" stroke="#FFFFFF" stroke-width="1.19" stroke-miterlimit="3.864" width="7.951" height="3.918"/>
				<path fill="none" stroke="#FFFFFF" stroke-width="1.19" stroke-miterlimit="3.864" d="M431.567,189.041v112.152
					 M440.239,182.675h-3.61v118.519 M440.239,176.307l2.169,121.947 M447.469,174.839h-5.784v-2.448 M289.879,304.622h6.507v3.918
					 M288.433,197.856l4.338,106.766 M278.313,191.49h6.505l2.892,113.132 M278.313,184.144l1.446,120.479 M271.085,184.144h6.505
					v-2.937"/>
				<rect x="437.347" y="298.254" fill="#FFFFFF" width="11.567" height="10.286"/>
				
					<rect x="437.347" y="298.254" fill="none" stroke="#FFFFFF" stroke-width="1.19" stroke-miterlimit="3.864" width="11.567" height="10.286"/>
				<rect x="428.675" y="301.193" fill="#FFFFFF" width="8.672" height="7.836"/>
				
					<rect x="428.675" y="301.193" fill="none" stroke="#FFFFFF" stroke-width="1.19" stroke-miterlimit="3.864" width="8.672" height="7.836"/>
				<rect x="256.627" y="131.741" fill="#B5B8CC" width="204.58" height="2.45"/>
				<rect x="256.627" y="134.19" fill="#BBBED1" width="204.58" height="2.447"/>
				<rect x="256.627" y="136.638" fill="#C2C4D5" width="204.58" height="2.45"/>
				<rect x="256.627" y="138.598" fill="#C9CBDB" width="204.58" height="2.448"/>
				<rect x="256.627" y="141.046" fill="#D1D3E0" width="204.58" height="2.449"/>
				<rect x="256.627" y="143.495" fill="#D7D9E4" width="204.58" height="2.448"/>
				<rect x="256.627" y="145.453" fill="#E0E1E9" width="204.58" height="2.45"/>
				<rect x="256.627" y="147.903" fill="#E9E9F0" width="204.58" height="2.447"/>
				<rect x="256.627" y="150.351" fill="#F1F1F5" width="204.58" height="2.45"/>
				<rect x="256.627" y="152.311" fill="#FFFFFF" width="204.58" height="2.448"/>
				<polygon fill="#FFFFFF" points="245.782,125.375 472.046,125.375 465.54,131.741 251.566,131.741 				"/>
				<polygon fill="none" stroke="#002254" stroke-width="1.19" stroke-miterlimit="3.864" points="245.782,125.375 472.046,125.375 
					465.54,131.741 251.566,131.741 				"/>
				<polygon fill="#FFFFFF" points="473.493,125.375 358.554,78.359 358.554,86.195 458.314,125.375 				"/>
				<polygon fill="none" stroke="#FFFFFF" stroke-width="1.19" stroke-miterlimit="3.864" points="473.493,125.375 358.554,78.359 
					358.554,86.195 458.314,125.375 				"/>
				<polygon fill="#FFFFFF" points="244.338,125.375 358.554,78.359 358.554,86.195 259.517,125.375 				"/>
				<polygon fill="none" stroke="#002254" stroke-width="1.19" stroke-miterlimit="3.864" points="244.338,125.375 358.554,78.359 
					358.554,86.195 259.517,125.375 				"/>
				
					<line fill="none" stroke="#FFFFFF" stroke-width="1.19" stroke-miterlimit="3.864" x1="358.554" y1="78.359" x2="358.554" y2="41.629"/>
				<path fill="#FFFFFF" d="M358.554,44.077c0,0,1.446,4.897,10.12,4.897c9.398,0,5.061-0.979,13.014,1.471l1.446,13.713
					c0,0-6.507-3.429-11.568-3.429c-5.061,0-6.507,3.429-13.012,0.979V44.077z"/>
				<path fill="none" stroke="#FFFFFF" stroke-width="1.19" stroke-miterlimit="3.864" d="M358.554,44.077
					c0,0,1.446,4.897,10.12,4.897c9.398,0,5.061-0.979,13.014,1.471l1.446,13.713c0,0-6.507-3.429-11.568-3.429
					c-5.061,0-6.507,3.429-13.012,0.979V44.077z"/>
				<polygon fill="#FFFFFF" points="294.217,107.744 262.409,107.744 262.409,120.478 				"/>
				<polygon fill="none" stroke="#FFFFFF" stroke-width="1.19" stroke-miterlimit="3.864" points="294.217,107.744 262.409,107.744 
					262.409,120.478 				"/>
				<path fill="none" stroke="#FFFFFF" stroke-width="1.19" stroke-miterlimit="3.864" d="M383.853,297.275h-5.057v11.265
					 M339.758,299.725h5.061v8.815 M336.145,298.254h3.613v10.286"/>
				<rect x="352.047" y="280.623" fill="#687096" width="18.073" height="27.917"/>
				
					<rect x="352.047" y="280.623" fill="none" stroke="#FFFFFF" stroke-width="1.19" stroke-miterlimit="3.864" width="18.073" height="27.917"/>
				<path fill="none" stroke="#FFFFFF" stroke-width="1.19" stroke-miterlimit="3.864" d="M339.758,197.856l3.615,101.869
					 M336.868,197.856l1.444,100.398 M381.688,197.856l-1.446,99.419 M352.047,294.827h18.073 M361.446,280.623v27.917"/>
				<path fill="#FFFFFF" d="M346.265,271.808c0,0,0-15.181,15.181-15.181c15.182,0,16.627,15.181,16.627,15.181H346.265z"/>
				<path fill="none" stroke="#FFFFFF" stroke-width="1.19" stroke-miterlimit="3.864" d="M346.265,271.808
					c0,0,0-15.181,15.181-15.181c15.182,0,16.627,15.181,16.627,15.181H346.265z"/>
				<rect x="354.939" y="251.24" fill="#B5B8CC" width="6.507" height="17.631"/>
				
					<rect x="354.939" y="251.24" fill="none" stroke="#FFFFFF" stroke-width="1.19" stroke-miterlimit="3.864" width="6.507" height="17.631"/>
				<rect x="361.446" y="251.24" fill="#687096" width="6.505" height="17.631"/>
				
					<rect x="361.446" y="251.24" fill="none" stroke="#FFFFFF" stroke-width="1.19" stroke-miterlimit="3.864" width="6.505" height="17.631"/>
				<rect x="346.265" y="271.808" fill="#FFFFFF" width="31.808" height="4.897"/>
				
					<rect x="346.265" y="271.808" fill="none" stroke="#FFFFFF" stroke-width="1.19" stroke-miterlimit="3.864" width="31.808" height="4.897"/>
				<path fill="none" stroke="#FFFFFF" stroke-width="1.19" stroke-miterlimit="3.864" d="M378.073,276.705v18.122h2.169
					 M346.265,276.705v18.122h-2.892"/>
				<rect x="406.989" y="261.524" fill="#687096" width="15.179" height="35.751"/>
				
					<rect x="406.989" y="261.524" fill="none" stroke="#FFFFFF" stroke-width="1.19" stroke-miterlimit="3.864" width="15.179" height="35.751"/>
				<path fill="none" stroke="#FFFFFF" stroke-width="1.19" stroke-miterlimit="3.864" d="M406.989,288.46h15.179 M406.989,279.154
					h15.179 M406.989,270.34h15.179 M417.107,261.524v35.751 M412.045,261.524v35.751"/>
				<rect x="299.276" y="261.524" fill="#687096" width="15.181" height="35.751"/>
				
					<rect x="299.276" y="261.524" fill="none" stroke="#FFFFFF" stroke-width="1.19" stroke-miterlimit="3.864" width="15.181" height="35.751"/>
				<path fill="none" stroke="#FFFFFF" stroke-width="1.19" stroke-miterlimit="3.864" d="M299.276,288.46h15.181 M299.276,279.154
					h15.181 M299.276,270.34h15.181 M309.398,261.524v35.751 M304.337,261.524v35.751"/>
				<g>
					<defs>
						<rect id="SVGID_31_" x="469.155" y="312.458" width="11.568" height="10.284"/>
					</defs>
					<clipPath id="SVGID_32_">
						<use xlink:href="#SVGID_31_"  overflow="visible"/>
					</clipPath>
					<rect x="469.155" y="312.458" clip-path="url(#SVGID_32_)" fill="#989DB8" width="11.568" height="1.958"/>
					<rect x="469.155" y="314.416" clip-path="url(#SVGID_32_)" fill="#AEB1C7" width="11.568" height="1.958"/>
					<rect x="469.155" y="316.863" clip-path="url(#SVGID_32_)" fill="#C4C7D7" width="11.568" height="1.961"/>
					<rect x="469.155" y="318.824" clip-path="url(#SVGID_32_)" fill="#DEDFE8" width="11.568" height="1.958"/>
					<rect x="469.155" y="320.782" clip-path="url(#SVGID_32_)" fill="#FFFFFF" width="11.568" height="1.96"/>
				</g>
				
					<rect x="469.155" y="312.458" fill="none" stroke="#FFFFFF" stroke-width="1.19" stroke-miterlimit="3.864" width="11.568" height="10.284"/>
				<rect x="480.723" y="310.987" fill="#B5B8CC" width="7.953" height="12.733"/>
				
					<rect x="480.723" y="310.987" fill="none" stroke="#FFFFFF" stroke-width="1.19" stroke-miterlimit="3.864" width="7.953" height="12.733"/>
				<rect x="521.925" y="310.987" fill="#B5B8CC" width="7.953" height="12.733"/>
				
					<rect x="521.925" y="310.987" fill="none" stroke="#FFFFFF" stroke-width="1.19" stroke-miterlimit="3.864" width="7.953" height="12.733"/>
				<rect x="562.41" y="310.987" fill="#B5B8CC" width="7.953" height="12.733"/>
				
					<rect x="562.41" y="310.987" fill="none" stroke="#FFFFFF" stroke-width="1.19" stroke-miterlimit="3.864" width="7.953" height="12.733"/>
				<rect x="602.89" y="310.987" fill="#B5B8CC" width="7.953" height="12.733"/>
				
					<rect x="602.89" y="310.987" fill="none" stroke="#FFFFFF" stroke-width="1.19" stroke-miterlimit="3.864" width="7.953" height="12.733"/>
				<g>
					<defs>
						<rect id="SVGID_33_" x="488.676" y="312.458" width="33.249" height="10.284"/>
					</defs>
					<clipPath id="SVGID_34_">
						<use xlink:href="#SVGID_33_"  overflow="visible"/>
					</clipPath>
					<rect x="488.676" y="312.458" clip-path="url(#SVGID_34_)" fill="#989DB8" width="33.249" height="1.958"/>
					<rect x="488.676" y="314.416" clip-path="url(#SVGID_34_)" fill="#AEB1C7" width="33.249" height="1.958"/>
					<rect x="488.676" y="316.863" clip-path="url(#SVGID_34_)" fill="#C4C7D7" width="33.249" height="1.961"/>
					<rect x="488.676" y="318.824" clip-path="url(#SVGID_34_)" fill="#DEDFE8" width="33.249" height="1.958"/>
					<rect x="488.676" y="320.782" clip-path="url(#SVGID_34_)" fill="#FFFFFF" width="33.249" height="1.96"/>
				</g>
				
					<rect x="488.676" y="312.458" fill="none" stroke="#FFFFFF" stroke-width="1.19" stroke-miterlimit="3.864" width="33.249" height="10.284"/>
				<g>
					<defs>
						<rect id="SVGID_35_" x="529.156" y="312.458" width="33.254" height="10.284"/>
					</defs>
					<clipPath id="SVGID_36_">
						<use xlink:href="#SVGID_35_"  overflow="visible"/>
					</clipPath>
					<rect x="529.156" y="312.458" clip-path="url(#SVGID_36_)" fill="#989DB8" width="33.254" height="1.958"/>
					<rect x="529.156" y="314.416" clip-path="url(#SVGID_36_)" fill="#AEB1C7" width="33.254" height="1.958"/>
					<rect x="529.156" y="316.863" clip-path="url(#SVGID_36_)" fill="#C4C7D7" width="33.254" height="1.961"/>
					<rect x="529.156" y="318.824" clip-path="url(#SVGID_36_)" fill="#DEDFE8" width="33.254" height="1.958"/>
					<rect x="529.156" y="320.782" clip-path="url(#SVGID_36_)" fill="#FFFFFF" width="33.254" height="1.96"/>
				</g>
				
					<rect x="529.156" y="312.458" fill="none" stroke="#FFFFFF" stroke-width="1.19" stroke-miterlimit="3.864" width="33.254" height="10.284"/>
				<g>
					<defs>
						<rect id="SVGID_37_" x="569.64" y="312.458" width="33.25" height="10.284"/>
					</defs>
					<clipPath id="SVGID_38_">
						<use xlink:href="#SVGID_37_"  overflow="visible"/>
					</clipPath>
					<rect x="569.64" y="312.458" clip-path="url(#SVGID_38_)" fill="#989DB8" width="33.25" height="1.958"/>
					<rect x="569.64" y="314.416" clip-path="url(#SVGID_38_)" fill="#AEB1C7" width="33.25" height="1.958"/>
					<rect x="569.64" y="316.863" clip-path="url(#SVGID_38_)" fill="#C4C7D7" width="33.25" height="1.961"/>
					<rect x="569.64" y="318.824" clip-path="url(#SVGID_38_)" fill="#DEDFE8" width="33.25" height="1.958"/>
					<rect x="569.64" y="320.782" clip-path="url(#SVGID_38_)" fill="#FFFFFF" width="33.25" height="1.96"/>
				</g>
				
					<rect x="569.64" y="312.458" fill="none" stroke="#FFFFFF" stroke-width="1.19" stroke-miterlimit="3.864" width="33.25" height="10.284"/>
				<rect x="610.843" y="312.458" fill="#989DB8" width="25.301" height="1.958"/>
				<rect x="610.843" y="314.416" fill="#AEB1C7" width="25.301" height="1.958"/>
				<rect x="610.843" y="316.863" fill="#C4C7D7" width="25.301" height="1.961"/>
				<rect x="610.843" y="318.824" fill="#DEDFE8" width="25.301" height="1.958"/>
				<rect x="610.843" y="320.782" fill="#FFFFFF" width="25.301" height="1.96"/>
				
					<rect x="610.843" y="312.458" fill="none" stroke="#FFFFFF" stroke-width="1.19" stroke-miterlimit="3.864" width="25.301" height="10.284"/>
				<g>
					<defs>
						<polyline id="SVGID_39_" points="460.483,181.207 637.59,181.207 632.529,186.593 632.529,191.49 461.929,191.49 
							460.483,181.207 						"/>
					</defs>
					<clipPath id="SVGID_40_">
						<use xlink:href="#SVGID_39_"  overflow="visible"/>
					</clipPath>
					<rect x="460.483" y="181.696" clip-path="url(#SVGID_40_)" fill="#687096" width="177.107" height="1.958"/>
					<rect x="460.483" y="183.654" clip-path="url(#SVGID_40_)" fill="#848BAA" width="177.107" height="1.958"/>
					<rect x="460.483" y="185.612" clip-path="url(#SVGID_40_)" fill="#A6AAC2" width="177.107" height="1.96"/>
					<rect x="460.483" y="187.572" clip-path="url(#SVGID_40_)" fill="#CBCDDC" width="177.107" height="1.958"/>
					<rect x="460.483" y="189.53" clip-path="url(#SVGID_40_)" fill="#FFFFFF" width="177.107" height="1.96"/>
				</g>
				<rect x="483.615" y="143.006" fill="#FFFFFF" width="18.071" height="15.181"/>
				
					<rect x="483.615" y="143.006" fill="none" stroke="#FFFFFF" stroke-width="1.19" stroke-miterlimit="3.864" width="18.071" height="15.181"/>
				<rect x="503.855" y="158.676" fill="#989DB8" width="26.747" height="12.734"/>
				
					<rect x="503.855" y="158.676" fill="none" stroke="#FFFFFF" stroke-width="1.19" stroke-miterlimit="3.864" width="26.747" height="12.734"/>
				<rect x="542.893" y="158.676" fill="#989DB8" width="26.747" height="12.734"/>
				
					<rect x="542.893" y="158.676" fill="none" stroke="#FFFFFF" stroke-width="1.19" stroke-miterlimit="3.864" width="26.747" height="12.734"/>
				<rect x="582.65" y="158.676" fill="#989DB8" width="26.747" height="12.734"/>
				
					<rect x="582.65" y="158.676" fill="none" stroke="#FFFFFF" stroke-width="1.19" stroke-miterlimit="3.864" width="26.747" height="12.734"/>
				<path fill="none" stroke="#FFFFFF" stroke-width="1.19" stroke-miterlimit="3.864" d="M361.446,248.791v-80.809
					 M605.782,158.676v12.734 M601.444,158.676v12.734 M597.829,158.676v12.734 M594.218,158.676v12.734 M590.603,158.676v12.734
					 M586.265,158.676v12.734 M566.025,158.676v12.734 M562.41,158.676v12.734 M558.794,158.676v12.734 M554.457,158.676v12.734
					 M550.841,158.676v12.734 M547.227,158.676v12.734 M485.061,158.676v12.734 M480.723,158.676v12.734 M477.108,158.676v12.734
					 M473.493,158.676v12.734 M469.155,158.676v12.734 M465.54,158.676v12.734 M526.987,158.676v12.734 M522.649,158.676v12.734
					 M519.034,158.676v12.734 M515.423,158.676v12.734 M511.085,158.676v12.734 M507.47,158.676v12.734"/>
				<polygon fill="#FFFFFF" points="245.782,125.375 472.046,125.375 465.54,131.741 251.566,131.741 				"/>
				<polygon fill="none" stroke="#FFFFFF" stroke-width="1.19" stroke-miterlimit="3.864" points="245.782,125.375 472.046,125.375 
					465.54,131.741 251.566,131.741 				"/>
				<polygon fill="#FFFFFF" points="244.338,125.375 358.554,78.359 358.554,86.195 259.517,125.375 				"/>
				<polygon fill="none" stroke="#FFFFFF" stroke-width="1.19" stroke-miterlimit="3.864" points="244.338,125.375 358.554,78.359 
					358.554,86.195 259.517,125.375 				"/>
				<path fill="none" stroke="#FFFFFF" stroke-width="1.19" stroke-miterlimit="3.864" d="M432.291,167.981
					c0,0-15.184,53.873-72.291,77.87 M287.71,167.981c0,0,15.181,53.873,72.29,77.87"/>
				<path fill="#FFFFFF" d="M271.085,159.658c3.613,1.468,6.505,0,6.505-2.45s-2.892-2.45-2.892-2.45h-18.794
					c0,0-2.892,0-2.892,2.45s2.892,3.918,6.505,2.45H271.085z"/>
				<path fill="none" stroke="#FFFFFF" stroke-width="1.19" stroke-miterlimit="3.864" d="M271.085,159.658
					c3.613,1.468,6.505,0,6.505-2.45s-2.892-2.45-2.892-2.45h-18.794c0,0-2.892,0-2.892,2.45s2.892,3.918,6.505,2.45H271.085z"/>
				<path fill="#FFFFFF" d="M333.253,159.658c3.615,1.468,6.505,0,6.505-2.45s-2.89-2.45-2.89-2.45h-18.796c0,0-2.892,0-2.892,2.45
					s2.892,3.918,6.507,2.45H333.253z"/>
				<path fill="none" stroke="#FFFFFF" stroke-width="1.19" stroke-miterlimit="3.864" d="M333.253,159.658
					c3.615,1.468,6.505,0,6.505-2.45s-2.89-2.45-2.89-2.45h-18.796c0,0-2.892,0-2.892,2.45s2.892,3.918,6.507,2.45H333.253z"/>
				<path fill="#FFFFFF" d="M386.745,159.658c-3.61,1.468-6.503,0-6.503-2.45s2.893-2.45,2.893-2.45h18.794c0,0,2.892,0,2.892,2.45
					s-2.892,3.918-6.507,2.45H386.745z"/>
				<path fill="none" stroke="#FFFFFF" stroke-width="1.19" stroke-miterlimit="3.864" d="M386.745,159.658
					c-3.61,1.468-6.503,0-6.503-2.45s2.893-2.45,2.893-2.45h18.794c0,0,2.892,0,2.892,2.45s-2.892,3.918-6.507,2.45H386.745z"/>
				<path fill="#FFFFFF" d="M448.915,159.658c-3.614,1.468-6.507,0-6.507-2.45s2.893-2.45,2.893-2.45h18.793c0,0,2.893,0,2.893,2.45
					s-2.893,3.918-6.503,2.45H448.915z"/>
				<path fill="none" stroke="#FFFFFF" stroke-width="1.19" stroke-miterlimit="3.864" d="M448.915,159.658
					c-3.614,1.468-6.507,0-6.507-2.45s2.893-2.45,2.893-2.45h18.793c0,0,2.893,0,2.893,2.45s-2.893,3.918-6.503,2.45H448.915z"/>
				<polyline fill="#FFFFFF" points="271.085,159.658 259.517,159.658 254.458,294.827 269.639,294.827 271.085,159.658 				"/>
				<polyline fill="#FFFFFF" points="333.253,159.658 321.687,159.658 319.518,294.827 334.699,294.827 333.253,159.658 				"/>
				<polyline fill="#FFFFFF" points="386.745,159.658 398.313,159.658 400.482,294.827 385.298,294.827 386.745,159.658 				"/>
				<polyline fill="#FFFFFF" points="448.915,159.658 460.483,159.658 465.54,294.827 450.361,294.827 448.915,159.658 				"/>
				<rect x="318.072" y="294.827" fill="#FFFFFF" width="18.073" height="14.202"/>
				
					<rect x="318.072" y="294.827" fill="none" stroke="#FFFFFF" stroke-width="1.19" stroke-miterlimit="3.864" width="18.073" height="14.202"/>
				<rect x="383.853" y="294.827" fill="#FFFFFF" width="18.075" height="14.202"/>
				
					<rect x="383.853" y="294.827" fill="none" stroke="#FFFFFF" stroke-width="1.19" stroke-miterlimit="3.864" width="18.075" height="14.202"/>
				<rect x="448.915" y="294.827" fill="#FFFFFF" width="18.071" height="14.202"/>
				
					<rect x="448.915" y="294.827" fill="none" stroke="#FFFFFF" stroke-width="1.19" stroke-miterlimit="3.864" width="18.071" height="14.202"/>
				<rect x="253.012" y="294.827" fill="#FFFFFF" width="18.073" height="14.202"/>
				
					<rect x="253.012" y="294.827" fill="none" stroke="#FFFFFF" stroke-width="1.19" stroke-miterlimit="3.864" width="18.073" height="14.202"/>
				<g>
					<defs>
						<rect id="SVGID_41_" x="246.505" y="308.54" width="222.65" height="17.139"/>
					</defs>
					<clipPath id="SVGID_42_">
						<use xlink:href="#SVGID_41_"  overflow="visible"/>
					</clipPath>
					<rect x="246.505" y="308.54" clip-path="url(#SVGID_42_)" fill="#989DB8" width="222.65" height="2.447"/>
					<rect x="246.505" y="310.987" clip-path="url(#SVGID_42_)" fill="#A6AAC2" width="222.65" height="2.45"/>
					<rect x="246.505" y="313.438" clip-path="url(#SVGID_42_)" fill="#B5B8CC" width="222.65" height="2.447"/>
					<rect x="246.505" y="315.885" clip-path="url(#SVGID_42_)" fill="#C4C7D7" width="222.65" height="2.449"/>
					<rect x="246.505" y="318.334" clip-path="url(#SVGID_42_)" fill="#D4D5E1" width="222.65" height="2.448"/>
					<rect x="246.505" y="320.782" clip-path="url(#SVGID_42_)" fill="#E6E7EE" width="222.65" height="2.449"/>
					<rect x="246.505" y="323.231" clip-path="url(#SVGID_42_)" fill="#FFFFFF" width="222.65" height="2.447"/>
				</g>
				
					<rect x="246.505" y="308.54" fill="none" stroke="#FFFFFF" stroke-width="1.19" stroke-miterlimit="3.864" width="222.65" height="17.139"/>
				<rect x="229.157" y="310.987" fill="#989DB8" width="7.951" height="12.733"/>
				
					<rect x="229.157" y="310.987" fill="none" stroke="#FFFFFF" stroke-width="1.19" stroke-miterlimit="3.864" width="7.951" height="12.733"/>
				<rect x="187.952" y="310.987" fill="#989DB8" width="7.951" height="12.733"/>
				
					<rect x="187.952" y="310.987" fill="none" stroke="#FFFFFF" stroke-width="1.19" stroke-miterlimit="3.864" width="7.951" height="12.733"/>
				<rect x="147.47" y="310.987" fill="#989DB8" width="7.951" height="12.733"/>
				
					<rect x="147.47" y="310.987" fill="none" stroke="#FFFFFF" stroke-width="1.19" stroke-miterlimit="3.864" width="7.951" height="12.733"/>
				<rect x="106.988" y="310.987" fill="#989DB8" width="7.951" height="12.733"/>
				
					<rect x="106.988" y="310.987" fill="none" stroke="#FFFFFF" stroke-width="1.19" stroke-miterlimit="3.864" width="7.951" height="12.733"/>
			</g>
		</g>
	</g>
</g>
</svg>
